{"glyphs":{"0":{"ha":633,"x_min":111,"x_max":417,"o":"m 417 944 q 391 1011 417 981 q 325 1044 365 1042 l 201 1044 q 132 1010 153 1044 q 111 933 111 976 l 111 111 q 131 37 111 71 q 199 0 150 3 l 333 0 q 396 34 375 3 q 417 103 417 65 l 417 944 m 157 140 l 157 906 q 174 972 157 947 q 214 996 190 996 l 308 996 q 359 973 347 996 q 371 904 371 950 l 371 140 q 359 72 371 94 q 308 49 347 49 l 233 49 q 171 72 185 49 q 157 140 157 96 z "},"1":{"ha":501,"x_min":111,"x_max":285,"o":"m 111 1043 l 111 996 l 236 996 l 236 0 l 285 0 l 285 1043 l 111 1043 z "},"2":{"ha":633,"x_min":111,"x_max":417,"o":"m 371 906 l 371 621 q 365 576 371 593 q 319 560 358 560 l 186 560 q 165 554 178 560 q 140 539 151 549 q 121 516 129 529 q 113 486 113 503 l 113 111 q 133 35 113 68 q 203 0 154 3 l 417 0 l 417 49 l 215 49 q 171 73 183 49 q 158 139 158 97 l 158 453 q 171 497 158 482 q 224 511 183 511 l 338 511 q 390 529 363 511 q 417 588 417 547 l 417 933 q 396 1009 417 976 q 326 1044 375 1042 l 203 1044 q 137 1011 163 1042 q 111 944 111 981 l 111 714 l 158 714 l 158 904 q 169 973 158 950 q 219 996 181 996 l 314 996 q 360 972 349 996 q 371 906 371 947 z "},"3":{"ha":633,"x_min":111,"x_max":417,"o":"m 163 515 l 371 515 l 371 140 q 356 72 371 96 q 292 49 340 49 l 219 49 q 169 72 181 49 q 157 140 157 94 l 157 331 l 111 331 l 111 103 q 132 34 111 65 q 194 0 153 3 l 329 0 q 397 37 378 3 q 417 111 417 71 l 417 933 q 396 1009 417 976 q 326 1044 375 1042 l 203 1044 q 137 1011 163 1042 q 111 944 111 981 l 111 714 l 157 714 l 157 904 q 169 973 157 950 q 219 996 181 996 l 314 996 q 354 972 338 996 q 371 906 371 947 l 371 564 l 163 564 l 163 515 z "},"4":{"ha":632,"x_min":111,"x_max":415,"o":"m 111 515 l 369 515 l 369 0 l 415 0 l 415 1044 l 369 1044 l 369 564 l 157 564 l 157 1044 l 111 1044 l 111 515 z "},"5":{"ha":633,"x_min":111,"x_max":417,"o":"m 417 996 l 158 996 l 158 621 q 165 576 158 593 q 210 560 171 560 l 343 560 q 365 554 351 560 q 389 539 378 549 q 408 516 400 529 q 417 486 417 503 l 417 111 q 396 35 417 68 q 326 0 375 3 l 203 0 q 137 33 163 3 q 111 100 111 64 l 111 331 l 158 331 l 158 140 q 169 72 158 94 q 219 49 181 49 l 314 49 q 358 73 346 49 q 371 139 371 97 l 371 453 q 358 497 371 482 q 306 511 346 511 l 192 511 q 140 529 167 511 q 113 588 113 547 l 113 1044 l 417 1044 l 417 996 z "},"6":{"ha":633,"x_min":111,"x_max":417,"o":"m 157 906 q 174 972 157 947 q 214 996 190 996 l 310 996 q 360 973 349 996 q 371 904 371 950 l 371 714 l 417 714 l 417 944 q 391 1011 417 981 q 325 1044 365 1042 l 201 1044 q 132 1009 153 1042 q 111 933 111 976 l 111 111 q 131 37 111 71 q 199 0 150 3 l 331 0 q 394 33 372 3 q 417 100 417 63 l 417 439 q 394 492 417 465 q 344 526 372 518 l 157 526 l 157 906 m 157 140 l 157 478 l 310 478 q 371 419 361 471 l 371 140 q 358 72 371 94 q 306 49 344 49 l 239 49 q 174 72 190 49 q 157 140 157 96 z "},"7":{"ha":635,"x_min":111,"x_max":418,"o":"m 418 994 l 158 0 l 114 0 l 364 996 l 111 996 l 111 1044 l 418 1044 l 418 994 z "},"8":{"ha":633,"x_min":111,"x_max":417,"o":"m 417 944 q 391 1011 417 981 q 325 1044 365 1042 l 201 1044 q 132 1009 153 1042 q 111 933 111 976 l 111 111 q 131 37 111 71 q 199 0 150 3 l 333 0 q 396 34 375 3 q 417 103 417 65 l 417 944 m 157 140 l 157 514 l 372 514 l 372 140 q 360 72 372 94 q 308 49 347 49 l 239 49 q 174 72 190 49 q 157 140 157 96 m 157 906 q 174 972 157 947 q 214 996 190 996 l 308 996 q 360 973 347 996 q 372 904 372 950 l 372 563 l 157 563 l 157 906 z "},"9":{"ha":633,"x_min":111,"x_max":417,"o":"m 371 139 q 354 73 371 97 q 314 49 338 49 l 219 49 q 169 72 181 49 q 157 140 157 94 l 157 331 l 111 331 l 111 100 q 137 33 111 64 q 203 0 163 3 l 326 0 q 396 35 375 3 q 417 111 417 68 l 417 933 q 397 1008 417 974 q 329 1044 378 1042 l 197 1044 q 133 1012 156 1042 q 111 944 111 982 l 111 600 q 119 574 111 588 q 138 550 126 561 q 163 531 149 539 q 192 518 178 522 l 371 518 l 371 139 m 371 904 l 371 567 l 218 567 q 157 626 168 574 l 157 906 q 170 974 157 951 q 222 996 183 996 l 289 996 q 354 972 338 996 q 371 904 371 949 z "}," ":{"ha":517,"x_min":0,"x_max":0,"o":""},"!":{"ha":388,"x_min":111,"x_max":171,"o":"m 118 247 l 164 247 l 164 1044 l 118 1044 l 118 247 m 111 0 l 171 0 l 171 83 l 111 83 l 111 0 z "},"\"":{"ha":517,"x_min":111,"x_max":300,"o":"m 122 746 l 146 746 l 157 892 l 157 1044 l 111 1044 l 111 892 l 122 746 m 265 746 l 289 746 l 300 892 l 300 1044 l 254 1044 l 254 892 l 265 746 z "},"#":{"ha":847,"x_min":111,"x_max":631,"o":"m 111 472 l 111 424 l 257 424 l 257 0 l 303 0 l 303 424 l 438 424 l 438 0 l 483 0 l 483 424 l 631 424 l 631 472 l 483 472 l 483 606 l 631 606 l 631 654 l 483 654 l 483 1044 l 438 1044 l 438 654 l 303 654 l 303 1044 l 257 1044 l 257 654 l 111 654 l 111 606 l 257 606 l 257 472 l 111 472 m 438 606 l 438 472 l 303 472 l 303 606 l 438 606 z "},"$":{"ha":635,"x_min":111,"x_max":418,"o":"m 243 -144 l 288 -144 l 288 0 l 326 0 q 396 35 375 3 q 417 111 417 68 l 417 486 q 408 516 417 503 q 389 539 400 529 q 365 554 378 549 q 343 560 351 560 l 288 560 l 288 996 l 310 996 q 360 973 349 996 q 371 904 371 950 l 371 714 l 418 714 l 418 944 q 392 1011 418 981 q 326 1044 367 1042 l 288 1044 l 288 1126 l 243 1126 l 243 1044 l 203 1044 q 133 1009 154 1042 q 113 933 113 976 l 113 588 q 140 529 113 547 q 192 511 167 511 l 243 511 l 243 49 l 219 49 q 169 72 181 49 q 158 140 158 94 l 158 331 l 111 331 l 111 100 q 137 33 111 64 q 203 0 163 3 l 243 0 l 243 -144 m 306 511 q 358 497 346 511 q 371 453 371 482 l 371 139 q 358 73 371 97 q 314 49 346 49 l 288 49 l 288 511 l 306 511 m 158 906 q 169 972 158 947 q 215 996 181 996 l 243 996 l 243 560 l 210 560 q 165 576 171 560 q 158 621 158 593 l 158 906 z "},"%":{"ha":775,"x_min":111,"x_max":558,"o":"m 236 0 l 486 1044 l 432 1044 l 182 0 l 236 0 m 264 994 q 251 1027 264 1013 q 218 1044 238 1042 l 156 1044 q 122 1026 132 1042 q 111 989 111 1010 l 111 578 q 121 540 111 557 q 154 522 131 522 l 222 522 q 253 538 243 522 q 264 574 264 554 l 264 994 m 146 592 l 146 974 q 168 1011 146 1011 l 206 1011 q 225 1001 221 1011 q 229 972 229 992 l 229 592 q 225 563 229 572 q 206 554 221 554 l 178 554 q 152 564 158 554 q 146 592 146 574 m 558 472 q 545 505 558 490 q 513 522 532 519 l 450 522 q 416 503 426 519 q 406 467 406 488 l 406 56 q 415 17 406 35 q 449 0 425 0 l 517 0 q 548 16 538 0 q 558 51 558 32 l 558 472 m 440 69 l 440 451 q 463 489 440 489 l 500 489 q 519 479 515 489 q 524 450 524 469 l 524 69 q 519 41 524 50 q 500 32 515 32 l 472 32 q 447 42 453 32 q 440 69 440 51 z "},"&":{"ha":719,"x_min":111,"x_max":503,"o":"m 157 906 q 174 972 157 947 q 214 996 190 996 l 268 996 q 318 973 307 996 q 329 904 329 950 l 329 714 l 376 714 l 376 944 q 351 1011 376 981 q 285 1044 325 1042 l 201 1044 q 132 1009 153 1042 q 111 933 111 976 l 111 111 q 131 37 111 71 q 199 0 150 3 l 331 0 q 394 33 372 3 q 417 100 417 63 l 417 478 l 503 478 l 503 526 l 157 526 l 157 906 m 157 140 l 157 478 l 369 478 l 369 140 q 357 72 369 94 q 306 49 344 49 l 239 49 q 174 72 190 49 q 157 140 157 96 z "},"'":{"ha":374,"x_min":111,"x_max":157,"o":"m 122 746 l 146 746 l 157 892 l 157 1044 l 111 1044 l 111 892 l 122 746 z "},"(":{"ha":457,"x_min":111,"x_max":240,"o":"m 206 -176 l 240 -176 q 178 149 200 -12 q 156 474 156 310 q 159 601 156 538 q 169 728 163 664 q 198 928 181 829 q 240 1126 215 1026 l 206 1126 q 162 956 181 1039 q 132 785 143 872 q 111 475 111 636 q 118 294 111 383 q 138 121 125 204 q 167 -38 150 38 q 206 -176 185 -114 z "},")":{"ha":457,"x_min":111,"x_max":240,"o":"m 146 -176 l 111 -176 q 174 149 151 -12 q 196 474 196 310 q 192 601 196 538 q 182 728 189 664 q 153 928 171 829 q 111 1126 136 1026 l 146 1126 q 190 956 171 1039 q 219 785 208 872 q 240 475 240 636 q 233 294 240 383 q 214 121 226 204 q 184 -38 201 38 q 146 -176 167 -114 z "},"*":{"ha":475,"x_min":111,"x_max":258,"o":"m 111 1024 q 138 1011 125 1017 q 165 1001 151 1006 q 150 974 158 992 q 128 929 142 957 l 153 899 q 167 931 160 910 q 183 979 175 951 q 215 899 200 926 l 242 929 q 219 974 229 956 q 203 1001 210 992 q 258 1024 232 1008 l 249 1064 q 224 1047 238 1057 q 200 1026 211 1038 l 200 1114 l 167 1114 l 167 1026 q 118 1064 149 1049 l 111 1024 z "},"+":{"ha":675,"x_min":111,"x_max":458,"o":"m 261 711 l 261 563 l 111 563 l 111 514 l 261 514 l 261 364 l 310 364 l 310 514 l 458 514 l 458 563 l 310 563 l 310 711 l 261 711 z "},",":{"ha":388,"x_min":111,"x_max":171,"o":"m 111 0 l 147 0 q 140 -76 146 -49 q 121 -117 133 -103 l 132 -161 q 162 -101 153 -139 q 171 0 171 -62 l 171 83 l 111 83 l 111 0 z "},"-":{"ha":624,"x_min":111,"x_max":407,"o":"m 111 514 l 407 514 l 407 563 l 111 563 l 111 514 z "},".":{"ha":388,"x_min":111,"x_max":171,"o":"m 111 0 l 171 0 l 171 83 l 111 83 l 111 0 z "},"/":{"ha":632,"x_min":111,"x_max":415,"o":"m 165 0 l 415 1044 l 361 1044 l 111 0 l 165 0 z "},":":{"ha":388,"x_min":111,"x_max":171,"o":"m 111 0 l 171 0 l 171 83 l 111 83 l 111 0 m 111 579 l 171 579 l 171 663 l 111 663 l 111 579 z "},";":{"ha":388,"x_min":111,"x_max":171,"o":"m 111 579 l 171 579 l 171 663 l 111 663 l 111 579 m 111 0 l 147 0 q 140 -76 146 -49 q 121 -117 133 -103 l 132 -161 q 162 -101 153 -139 q 171 0 171 -62 l 171 83 l 111 83 l 111 0 z "},"<":{"ha":586,"x_min":111,"x_max":369,"o":"m 315 0 l 369 0 l 163 542 l 369 1044 l 315 1044 l 111 540 l 315 0 z "},"=":{"ha":731,"x_min":111,"x_max":514,"o":"m 111 654 l 111 606 l 514 606 l 514 654 l 111 654 m 111 472 l 111 424 l 514 424 l 514 472 l 111 472 z "},">":{"ha":586,"x_min":111,"x_max":369,"o":"m 165 0 l 111 0 l 318 542 l 111 1044 l 165 1044 l 369 540 l 165 0 z "},"?":{"ha":633,"x_min":111,"x_max":417,"o":"m 371 621 q 365 576 371 593 q 319 560 358 560 l 288 560 q 266 554 279 560 q 242 539 253 549 q 222 516 231 529 q 214 486 214 503 l 214 289 l 260 289 l 260 453 q 272 497 260 482 q 325 511 285 511 l 338 511 q 390 529 363 511 q 417 588 417 547 l 417 933 q 396 1009 417 976 q 326 1044 375 1042 l 203 1044 q 137 1011 163 1042 q 111 944 111 981 l 111 714 l 158 714 l 158 904 q 169 973 158 950 q 219 996 181 996 l 314 996 q 360 972 349 996 q 371 906 371 947 l 371 621 m 204 0 l 264 0 l 264 83 l 204 83 l 204 0 z "},"@":{"ha":914,"x_min":111,"x_max":697,"o":"m 306 243 l 400 869 l 436 869 l 531 285 l 647 285 l 647 921 q 635 977 647 958 q 589 996 624 996 l 214 996 q 174 969 190 996 q 157 901 157 943 l 157 129 q 174 69 157 89 q 239 49 192 49 l 611 49 l 611 0 l 199 0 q 131 37 150 3 q 111 111 111 71 l 111 933 q 132 1009 111 976 q 201 1044 153 1042 l 606 1044 q 672 1011 646 1042 q 697 944 697 981 l 697 243 l 499 243 l 461 457 l 378 457 l 344 243 l 306 243 m 385 489 l 454 489 l 417 774 l 385 489 z "},"A":{"ha":714,"x_min":111,"x_max":497,"o":"m 447 0 l 497 0 l 331 1044 l 271 1044 l 111 0 l 161 0 l 213 356 l 390 356 l 447 0 m 301 946 l 382 410 l 219 410 l 301 946 z "},"B":{"ha":657,"x_min":111,"x_max":440,"o":"m 111 0 l 278 0 q 355 28 324 0 q 405 101 386 57 q 432 198 424 144 q 440 301 440 251 q 419 459 440 393 q 358 553 399 525 q 403 653 389 589 q 418 782 418 717 q 411 889 418 840 q 388 972 404 938 q 343 1025 371 1006 q 274 1044 315 1044 l 111 1044 l 111 0 m 157 563 l 157 996 l 254 996 q 315 976 292 992 q 349 935 338 961 q 365 870 361 908 q 368 782 368 832 q 355 654 368 707 q 318 579 342 601 q 258 563 299 563 l 157 563 m 157 49 l 157 508 l 267 508 q 305 507 288 508 q 335 496 322 506 q 376 419 363 475 q 390 286 390 363 q 360 126 390 185 q 274 49 329 68 l 157 49 z "},"C":{"ha":633,"x_min":111,"x_max":417,"o":"m 157 140 l 157 906 q 174 972 157 947 q 214 996 190 996 l 308 996 q 359 974 347 996 q 371 906 371 951 l 371 714 l 417 714 l 417 944 q 391 1011 417 981 q 325 1044 365 1042 l 201 1044 q 135 1010 158 1044 q 111 933 111 976 l 111 111 q 131 37 111 71 q 199 0 150 3 l 333 0 q 396 34 375 3 q 417 103 417 65 l 417 331 l 371 331 l 371 140 q 359 72 371 94 q 308 49 347 49 l 236 49 q 172 72 188 49 q 157 140 157 96 z "},"D":{"ha":636,"x_min":111,"x_max":419,"o":"m 111 0 l 229 0 q 286 22 258 0 q 333 78 314 43 q 361 137 346 100 q 389 226 376 174 q 410 346 401 278 q 419 499 419 414 l 419 525 q 405 772 419 664 q 361 949 390 881 q 306 1015 338 985 q 239 1044 274 1044 l 111 1044 l 111 0 m 157 49 l 157 996 l 215 996 q 247 988 232 996 q 275 968 261 981 q 342 826 322 928 q 352 782 347 811 q 361 716 357 753 q 368 639 365 679 q 371 560 371 599 q 365 418 371 483 q 357 317 360 353 q 345 243 354 288 q 319 157 336 199 q 277 84 303 115 q 215 49 251 53 l 157 49 z "},"E":{"ha":635,"x_min":111,"x_max":418,"o":"m 111 0 l 418 0 l 418 49 l 157 49 l 157 514 l 389 514 l 389 563 l 157 563 l 157 996 l 418 996 l 418 1044 l 111 1044 l 111 0 z "},"F":{"ha":635,"x_min":111,"x_max":418,"o":"m 111 0 l 157 0 l 157 514 l 389 514 l 389 563 l 157 563 l 157 996 l 418 996 l 418 1044 l 111 1044 l 111 0 z "},"G":{"ha":633,"x_min":111,"x_max":417,"o":"m 157 140 l 157 906 q 174 972 157 947 q 214 996 190 996 l 308 996 q 359 973 347 996 q 371 904 371 950 l 371 714 l 417 714 l 417 944 q 391 1011 417 981 q 325 1044 365 1042 l 201 1044 q 132 1010 153 1044 q 111 933 111 976 l 111 111 q 131 37 111 71 q 199 0 150 3 l 331 0 q 394 33 372 3 q 417 100 417 63 l 417 526 l 279 526 l 279 478 l 371 478 l 371 140 q 358 72 371 94 q 306 49 344 49 l 239 49 q 174 72 190 49 q 157 140 157 96 z "},"H":{"ha":632,"x_min":111,"x_max":415,"o":"m 157 515 l 369 515 l 369 0 l 415 0 l 415 1044 l 369 1044 l 369 564 l 157 564 l 157 1044 l 111 1044 l 111 0 l 157 0 l 157 515 z "},"I":{"ha":446,"x_min":111,"x_max":229,"o":"m 192 1044 l 167 1074 l 146 1044 q 121 776 131 910 q 111 508 111 643 q 119 254 111 378 q 143 0 128 131 l 168 -31 l 189 0 q 219 266 208 135 q 229 532 229 397 q 192 1044 229 788 z "},"J":{"ha":631,"x_min":111,"x_max":414,"o":"m 368 140 q 351 72 368 96 q 286 49 335 49 l 219 49 q 169 72 181 49 q 157 140 157 94 l 157 331 l 111 331 l 111 103 q 132 34 111 65 q 194 0 153 3 l 326 0 q 394 37 375 3 q 414 111 414 71 l 414 1044 l 368 1044 l 368 140 z "},"K":{"ha":642,"x_min":111,"x_max":425,"o":"m 111 0 l 157 0 l 157 389 l 224 550 l 378 0 l 425 0 l 254 617 l 418 1044 l 369 1044 l 157 499 l 157 1044 l 111 1044 l 111 0 z "},"L":{"ha":636,"x_min":111,"x_max":419,"o":"m 111 0 l 419 0 l 419 49 l 157 49 l 157 1044 l 111 1044 l 111 0 z "},"M":{"ha":982,"x_min":111,"x_max":765,"o":"m 460 0 l 719 911 l 719 0 l 765 0 l 765 1044 l 715 1044 l 442 99 l 160 1044 l 111 1044 l 111 0 l 158 0 l 158 911 l 421 0 l 460 0 z "},"N":{"ha":633,"x_min":111,"x_max":417,"o":"m 157 0 l 157 864 l 367 0 l 417 0 l 417 1044 l 371 1044 l 371 176 l 163 1044 l 111 1044 l 111 0 l 157 0 z "},"O":{"ha":633,"x_min":111,"x_max":417,"o":"m 417 944 q 391 1011 417 981 q 325 1044 365 1042 l 201 1044 q 131 1010 151 1044 q 111 933 111 976 l 111 111 q 131 37 111 71 q 199 0 150 3 l 333 0 q 396 34 375 3 q 417 103 417 65 l 417 944 m 157 140 l 157 906 q 174 972 157 947 q 214 996 190 996 l 308 996 q 359 973 347 996 q 371 904 371 950 l 371 140 q 359 72 371 94 q 308 49 347 49 l 239 49 q 174 72 190 49 q 157 140 157 96 z "},"P":{"ha":629,"x_min":111,"x_max":413,"o":"m 111 0 l 157 0 l 157 463 l 276 463 q 323 481 299 463 q 367 535 347 499 q 400 627 388 571 q 413 758 413 683 q 400 875 413 822 q 368 965 388 928 q 324 1024 349 1003 q 278 1044 300 1044 l 111 1044 l 111 0 m 157 511 l 157 996 l 243 996 q 305 974 282 996 q 341 917 328 951 q 360 840 354 882 q 368 756 365 797 q 360 675 364 718 q 345 595 356 632 q 315 535 335 558 q 257 511 294 511 l 157 511 z "},"Q":{"ha":633,"x_min":111,"x_max":417,"o":"m 288 -122 l 288 0 l 333 0 q 396 34 375 3 q 417 103 417 65 l 417 944 q 391 1011 417 981 q 325 1044 365 1042 l 201 1044 q 132 1010 153 1044 q 111 933 111 976 l 111 111 q 131 37 111 71 q 199 0 150 3 l 242 0 l 242 -122 l 288 -122 m 157 140 l 157 906 q 174 972 157 947 q 214 996 190 996 l 308 996 q 359 973 347 996 q 371 904 371 950 l 371 140 q 359 72 371 94 q 308 49 347 49 l 288 49 l 288 521 l 242 521 l 242 49 l 239 49 q 174 72 190 49 q 157 140 157 96 z "},"R":{"ha":660,"x_min":111,"x_max":443,"o":"m 111 0 l 157 0 l 157 463 l 236 463 q 261 441 249 454 q 287 401 274 428 q 314 331 300 375 q 343 214 328 286 l 389 0 l 443 0 l 376 285 q 349 384 363 343 q 308 469 336 425 q 381 560 349 489 q 413 758 413 632 q 400 875 413 822 q 368 965 388 928 q 324 1024 349 1003 q 278 1044 300 1044 l 111 1044 l 111 0 m 157 511 l 157 996 l 243 996 q 305 974 282 996 q 341 917 328 951 q 360 840 354 882 q 368 756 365 797 q 360 675 364 718 q 345 595 356 632 q 315 535 335 558 q 257 511 294 511 l 157 511 z "},"S":{"ha":635,"x_min":111,"x_max":418,"o":"m 158 906 l 158 621 q 165 576 158 593 q 210 560 171 560 l 343 560 q 365 554 351 560 q 389 539 378 549 q 408 516 400 529 q 417 486 417 503 l 417 111 q 396 35 417 68 q 326 0 375 3 l 203 0 q 137 33 163 3 q 111 100 111 64 l 111 331 l 157 331 l 157 139 q 169 71 157 93 q 219 49 181 49 l 314 49 q 358 73 346 49 q 371 139 371 97 l 371 453 q 358 497 371 482 q 306 511 346 511 l 192 511 q 140 529 167 511 q 113 588 113 547 l 113 933 q 133 1009 113 976 q 203 1044 154 1042 l 326 1044 q 392 1011 367 1042 q 418 944 418 981 l 418 714 l 372 714 l 372 904 q 360 973 372 950 q 310 996 349 996 l 215 996 q 169 972 181 996 q 158 906 158 947 z "},"T":{"ha":636,"x_min":111,"x_max":419,"o":"m 111 1044 l 111 996 l 242 996 l 242 0 l 289 0 l 289 996 l 419 996 l 419 1044 l 111 1044 z "},"U":{"ha":633,"x_min":111,"x_max":417,"o":"m 157 140 l 157 1044 l 111 1044 l 111 111 q 131 37 111 71 q 199 0 150 3 l 333 0 q 396 34 375 3 q 417 103 417 65 l 417 1044 l 371 1044 l 371 140 q 359 72 371 94 q 308 49 347 49 l 239 49 q 174 72 190 49 q 157 140 157 96 z "},"V":{"ha":714,"x_min":111,"x_max":497,"o":"m 301 101 l 447 1044 l 497 1044 l 331 0 l 271 0 l 111 1044 l 161 1044 l 301 101 z "},"W":{"ha":1031,"x_min":111,"x_max":814,"o":"m 615 99 l 478 1044 l 447 1044 l 299 99 l 161 1044 l 111 1044 l 268 0 l 328 0 l 463 860 l 585 0 l 644 0 l 814 1044 l 764 1044 l 615 99 z "},"X":{"ha":632,"x_min":111,"x_max":415,"o":"m 165 0 l 264 515 l 361 0 l 415 0 l 310 543 l 415 1044 l 361 1044 l 264 558 l 163 1044 l 111 1044 l 215 543 l 111 0 l 165 0 z "},"Y":{"ha":631,"x_min":111,"x_max":414,"o":"m 239 515 l 211 515 q 176 520 193 515 q 144 535 158 525 q 120 563 129 546 q 111 603 111 579 l 111 1044 l 157 1044 l 157 626 q 215 564 157 564 l 315 564 q 368 622 368 564 l 368 1044 l 414 1044 l 414 599 q 404 561 414 576 q 380 535 394 546 q 348 520 365 525 q 315 515 331 515 l 288 515 l 288 0 l 239 0 l 239 515 z "},"Z":{"ha":635,"x_min":111,"x_max":418,"o":"m 418 996 l 163 49 l 418 49 l 418 0 l 114 0 l 114 49 l 367 996 l 111 996 l 111 1044 l 418 1044 l 418 996 z "},"[":{"ha":425,"x_min":111,"x_max":208,"o":"m 111 -144 l 208 -144 l 208 -96 l 156 -96 l 156 1078 l 207 1078 l 207 1126 l 111 1126 l 111 -144 z "},"\\":{"ha":632,"x_min":111,"x_max":415,"o":"m 361 0 l 111 1044 l 165 1044 l 415 0 l 361 0 z "},"]":{"ha":425,"x_min":111,"x_max":208,"o":"m 208 -144 l 111 -144 l 111 -96 l 164 -96 l 164 1078 l 113 1078 l 113 1126 l 208 1126 l 208 -144 z "},"^":{"ha":475,"x_min":111,"x_max":258,"o":"m 157 939 l 185 999 l 213 939 l 258 939 l 210 1044 l 160 1044 l 111 939 l 157 939 z "},"_":{"ha":635,"x_min":111,"x_max":418,"o":"m 111 0 l 418 0 l 418 49 l 111 49 l 111 0 z "},"`":{"ha":407,"x_min":111,"x_max":190,"o":"m 190 939 l 161 1044 l 111 1044 l 160 939 l 190 939 z "},"a":{"ha":714,"x_min":111,"x_max":497,"o":"m 301 943 l 447 0 l 497 0 l 331 1044 l 271 1044 l 111 0 l 161 0 l 301 943 z "},"b":{"ha":657,"x_min":111,"x_max":440,"o":"m 111 0 l 278 0 q 355 28 324 0 q 405 101 386 57 q 432 198 424 144 q 440 301 440 251 q 419 459 440 393 q 358 553 399 525 q 403 653 389 589 q 418 782 418 717 q 411 889 418 840 q 388 972 404 938 q 343 1025 371 1006 q 274 1044 315 1044 l 111 1044 l 111 0 m 157 563 l 157 996 l 254 996 q 315 976 292 992 q 349 935 338 961 q 365 870 361 908 q 368 782 368 832 q 355 654 368 707 q 318 579 342 601 q 258 563 299 563 l 157 563 m 157 49 l 157 508 l 267 508 q 305 507 288 508 q 335 496 322 506 q 376 419 363 475 q 390 286 390 363 q 360 126 390 185 q 274 49 329 68 l 157 49 z "},"c":{"ha":633,"x_min":111,"x_max":417,"o":"m 157 140 l 157 906 q 174 972 157 947 q 214 996 190 996 l 308 996 q 359 974 347 996 q 371 906 371 951 l 371 714 l 417 714 l 417 944 q 391 1011 417 981 q 325 1044 365 1042 l 201 1044 q 135 1010 158 1044 q 111 933 111 976 l 111 111 q 131 37 111 71 q 199 0 150 3 l 333 0 q 396 34 375 3 q 417 103 417 65 l 417 331 l 371 331 l 371 140 q 359 72 371 94 q 308 49 347 49 l 236 49 q 172 72 188 49 q 157 140 157 96 z "},"d":{"ha":636,"x_min":111,"x_max":419,"o":"m 111 0 l 229 0 q 286 22 258 0 q 333 78 314 43 q 361 137 346 100 q 389 226 376 174 q 410 346 401 278 q 419 499 419 414 l 419 525 q 405 772 419 664 q 361 949 390 881 q 306 1015 338 985 q 239 1044 274 1044 l 111 1044 l 111 0 m 157 49 l 157 996 l 215 996 q 247 988 232 996 q 275 968 261 981 q 342 826 322 928 q 352 782 347 811 q 361 716 357 753 q 368 639 365 679 q 371 560 371 599 q 365 418 371 483 q 357 317 360 353 q 345 243 354 288 q 319 157 336 199 q 277 84 303 115 q 215 49 251 53 l 157 49 z "},"e":{"ha":635,"x_min":111,"x_max":418,"o":"m 111 0 l 418 0 l 418 49 l 157 49 l 157 514 l 389 514 l 389 563 l 157 563 l 157 996 l 418 996 l 418 1044 l 111 1044 l 111 0 z "},"f":{"ha":635,"x_min":111,"x_max":418,"o":"m 111 0 l 157 0 l 157 514 l 389 514 l 389 563 l 157 563 l 157 996 l 418 996 l 418 1044 l 111 1044 l 111 0 z "},"g":{"ha":633,"x_min":111,"x_max":417,"o":"m 157 140 l 157 906 q 174 972 157 947 q 214 996 190 996 l 308 996 q 359 973 347 996 q 371 904 371 950 l 371 714 l 417 714 l 417 944 q 391 1011 417 981 q 325 1044 365 1042 l 201 1044 q 136 1010 161 1044 q 111 933 111 976 l 111 111 q 131 37 111 71 q 199 0 150 3 l 331 0 q 394 33 372 3 q 417 100 417 63 l 417 526 l 279 526 l 279 478 l 371 478 l 371 140 q 358 72 371 94 q 306 49 344 49 l 239 49 q 174 72 190 49 q 157 140 157 96 z "},"h":{"ha":632,"x_min":111,"x_max":415,"o":"m 157 515 l 369 515 l 369 0 l 415 0 l 415 1044 l 369 1044 l 369 564 l 157 564 l 157 1044 l 111 1044 l 111 0 l 157 0 l 157 515 z "},"i":{"ha":378,"x_min":111,"x_max":161,"o":"m 111 0 l 161 0 l 161 1044 l 111 1044 l 111 0 z "},"j":{"ha":631,"x_min":111,"x_max":414,"o":"m 368 140 q 351 72 368 96 q 286 49 335 49 l 219 49 q 169 72 181 49 q 157 140 157 94 l 157 331 l 111 331 l 111 103 q 132 34 111 65 q 194 0 153 3 l 326 0 q 394 37 375 3 q 414 111 414 71 l 414 1044 l 368 1044 l 368 140 z "},"k":{"ha":642,"x_min":111,"x_max":425,"o":"m 111 0 l 157 0 l 157 389 l 224 550 l 378 0 l 425 0 l 254 617 l 418 1044 l 369 1044 l 157 499 l 157 1044 l 111 1044 l 111 0 z "},"l":{"ha":636,"x_min":111,"x_max":419,"o":"m 111 0 l 419 0 l 419 49 l 157 49 l 157 1044 l 111 1044 l 111 0 z "},"m":{"ha":982,"x_min":111,"x_max":765,"o":"m 460 0 l 719 911 l 719 0 l 765 0 l 765 1044 l 715 1044 l 442 99 l 160 1044 l 111 1044 l 111 0 l 158 0 l 158 911 l 421 0 l 460 0 z "},"n":{"ha":633,"x_min":111,"x_max":417,"o":"m 157 0 l 157 864 l 367 0 l 417 0 l 417 1044 l 371 1044 l 371 176 l 163 1044 l 111 1044 l 111 0 l 157 0 z "},"o":{"ha":633,"x_min":111,"x_max":417,"o":"m 417 944 q 391 1011 417 981 q 325 1044 365 1042 l 201 1044 q 132 1010 153 1044 q 111 933 111 976 l 111 111 q 131 37 111 71 q 199 0 150 3 l 333 0 q 396 34 375 3 q 417 103 417 65 l 417 944 m 157 140 l 157 906 q 174 972 157 947 q 214 996 190 996 l 308 996 q 359 973 347 996 q 371 904 371 950 l 371 140 q 359 72 371 94 q 308 49 347 49 l 233 49 q 171 72 185 49 q 157 140 157 96 z "},"p":{"ha":629,"x_min":111,"x_max":413,"o":"m 111 0 l 157 0 l 157 463 l 276 463 q 323 481 299 463 q 367 535 347 499 q 400 627 388 571 q 413 758 413 683 q 397 885 413 831 q 358 974 381 939 q 314 1027 336 1010 q 278 1044 292 1044 l 111 1044 l 111 0 m 157 511 l 157 996 l 246 996 q 302 974 279 996 q 338 917 325 951 q 358 840 351 882 q 368 756 365 797 q 360 675 364 718 q 345 595 356 632 q 315 535 335 558 q 257 511 294 511 l 157 511 z "},"q":{"ha":633,"x_min":111,"x_max":417,"o":"m 333 0 q 396 34 375 3 q 417 103 417 65 l 417 944 q 391 1011 417 981 q 325 1044 365 1042 l 201 1044 q 132 1010 153 1044 q 111 933 111 976 l 111 111 q 131 37 111 71 q 199 0 150 3 l 333 0 m 157 140 l 157 906 q 174 972 157 947 q 214 996 190 996 l 308 996 q 359 973 347 996 q 371 904 371 950 l 371 140 q 359 72 371 94 q 308 49 347 49 l 288 49 l 288 521 l 242 521 l 242 49 l 239 49 q 174 72 190 49 q 157 140 157 96 z "},"r":{"ha":660,"x_min":111,"x_max":443,"o":"m 111 0 l 157 0 l 157 463 l 236 463 q 261 441 249 454 q 287 401 274 428 q 314 331 300 375 q 343 214 328 286 l 389 0 l 443 0 l 376 285 q 349 384 363 343 q 308 469 336 425 q 381 560 349 489 q 413 758 413 632 q 400 875 413 822 q 368 965 388 928 q 324 1024 349 1003 q 278 1044 300 1044 l 111 1044 l 111 0 m 157 511 l 157 996 l 243 996 q 305 974 282 996 q 341 917 328 951 q 360 840 354 882 q 368 756 365 797 q 360 675 364 718 q 345 595 356 632 q 315 535 335 558 q 257 511 294 511 l 157 511 z "},"s":{"ha":635,"x_min":111,"x_max":418,"o":"m 158 906 l 158 621 q 165 576 158 593 q 210 560 171 560 l 343 560 q 365 554 351 560 q 389 539 378 549 q 408 516 400 529 q 417 486 417 503 l 417 111 q 396 35 417 68 q 326 0 375 3 l 203 0 q 137 33 163 3 q 111 100 111 64 l 111 331 l 157 331 l 157 139 q 169 71 157 93 q 219 49 181 49 l 314 49 q 358 73 346 49 q 371 139 371 97 l 371 453 q 358 497 371 482 q 306 511 346 511 l 192 511 q 140 529 167 511 q 113 588 113 547 l 113 933 q 133 1009 113 976 q 203 1044 154 1042 l 326 1044 q 392 1011 367 1042 q 418 944 418 981 l 418 714 l 372 714 l 372 904 q 360 973 372 950 q 310 996 349 996 l 215 996 q 169 972 181 996 q 158 906 158 947 z "},"t":{"ha":636,"x_min":111,"x_max":419,"o":"m 111 1044 l 111 996 l 242 996 l 242 0 l 289 0 l 289 996 l 419 996 l 419 1044 l 111 1044 z "},"u":{"ha":633,"x_min":111,"x_max":417,"o":"m 157 140 l 157 1044 l 111 1044 l 111 111 q 131 37 111 71 q 199 0 150 3 l 333 0 q 396 34 375 3 q 417 103 417 65 l 417 1044 l 371 1044 l 371 140 q 359 72 371 94 q 308 49 347 49 l 239 49 q 174 72 190 49 q 157 140 157 96 z "},"v":{"ha":714,"x_min":111,"x_max":497,"o":"m 301 101 l 447 1044 l 497 1044 l 331 0 l 271 0 l 111 1044 l 161 1044 l 301 101 z "},"w":{"ha":1031,"x_min":111,"x_max":814,"o":"m 615 99 l 478 1044 l 447 1044 l 299 99 l 161 1044 l 111 1044 l 268 0 l 328 0 l 463 860 l 585 0 l 644 0 l 814 1044 l 764 1044 l 615 99 z "},"x":{"ha":632,"x_min":111,"x_max":415,"o":"m 157 0 l 264 515 l 367 0 l 415 0 l 310 543 l 415 1044 l 367 1044 l 264 558 l 158 1044 l 111 1044 l 215 543 l 111 0 l 157 0 z "},"y":{"ha":631,"x_min":111,"x_max":414,"o":"m 239 515 l 211 515 q 176 520 193 515 q 144 535 158 525 q 120 563 129 546 q 111 603 111 579 l 111 1044 l 157 1044 l 157 626 q 215 564 157 564 l 315 564 q 368 622 368 564 l 368 1044 l 414 1044 l 414 599 q 404 561 414 576 q 380 535 394 546 q 348 520 365 525 q 315 515 331 515 l 288 515 l 288 0 l 239 0 l 239 515 z "},"z":{"ha":635,"x_min":111,"x_max":418,"o":"m 418 996 l 163 49 l 418 49 l 418 0 l 114 0 l 114 49 l 367 996 l 111 996 l 111 1044 l 418 1044 l 418 996 z "},"{":{"ha":471,"x_min":111,"x_max":254,"o":"m 111 531 l 111 418 q 140 389 129 415 q 156 315 153 364 q 160 251 158 292 q 161 147 161 210 q 162 42 161 85 q 164 -28 163 -1 q 204 -168 172 -132 q 239 -178 214 -178 l 253 -178 l 253 -96 l 246 -96 q 215 -65 224 -96 q 204 11 207 -35 q 203 31 203 15 l 203 63 l 203 168 q 190 378 203 313 q 175 434 183 410 q 153 474 167 458 q 172 506 164 489 q 185 544 179 522 q 195 592 192 565 q 201 657 199 619 q 203 669 203 663 q 203 688 203 678 l 203 736 l 203 881 q 204 953 203 925 q 210 994 206 982 q 224 1027 215 1007 q 246 1047 233 1047 l 254 1047 l 254 1126 l 239 1126 q 208 1119 219 1126 q 178 1065 189 1103 q 163 942 167 1026 q 161 918 161 935 l 161 886 l 161 792 q 160 694 161 733 q 156 632 158 656 q 142 558 153 585 q 111 531 131 532 z "},"|":{"ha":372,"x_min":111,"x_max":156,"o":"m 111 -144 l 156 -144 l 156 1126 l 111 1126 l 111 -144 z "},"}":{"ha":471,"x_min":111,"x_max":254,"o":"m 254 531 l 254 418 q 225 389 235 415 q 210 315 213 364 q 206 251 207 292 q 204 147 204 210 q 203 42 204 85 q 201 -28 203 -1 q 161 -168 193 -132 q 126 -178 151 -178 l 113 -178 l 113 -96 l 119 -96 q 150 -65 142 -96 q 161 11 158 -35 q 163 31 163 15 l 163 63 l 163 168 q 175 378 163 313 q 190 434 182 410 q 213 474 199 458 q 194 506 201 489 q 180 544 186 522 q 170 592 174 565 q 164 657 167 619 q 163 669 163 663 q 163 688 163 678 l 163 736 l 163 881 q 161 953 163 925 q 156 994 160 982 q 141 1027 150 1007 q 119 1047 132 1047 l 111 1047 l 111 1126 l 126 1126 q 157 1119 146 1126 q 188 1065 176 1103 q 203 942 199 1026 q 204 918 204 935 l 204 886 l 204 792 q 206 694 204 733 q 210 632 207 656 q 224 558 213 585 q 254 531 235 532 z "},"~":{"ha":525,"x_min":111,"x_max":308,"o":"m 263 589 l 236 532 l 210 589 l 160 589 l 111 483 l 157 483 l 183 540 l 210 483 l 260 483 l 308 589 l 263 589 z "},"":{"ha":247,"x_min":0,"x_max":0,"o":""},"":{"ha":768,"x_min":111,"x_max":551,"o":"m 111 606 l 111 654 l 246 654 l 246 933 q 269 1010 246 976 q 336 1044 293 1044 l 460 1044 q 526 1011 500 1042 q 551 944 551 981 l 551 714 l 506 714 l 506 906 q 494 974 506 951 q 443 996 482 996 l 349 996 q 308 972 325 996 q 292 906 292 947 l 292 654 l 501 654 l 501 606 l 292 606 l 292 472 l 501 472 l 501 424 l 292 424 l 292 140 q 307 72 292 96 q 371 49 322 49 l 443 49 q 494 72 482 49 q 506 140 506 94 l 506 331 l 551 331 l 551 103 q 531 34 551 65 q 468 0 510 3 l 333 0 q 265 37 285 3 q 246 111 246 71 l 246 424 l 111 424 l 111 472 l 246 472 l 246 606 l 111 606 z "},"‚":{"ha":388,"x_min":111,"x_max":171,"o":"m 111 0 l 147 0 q 140 -76 146 -49 q 121 -117 133 -103 l 132 -161 q 162 -101 153 -139 q 171 0 171 -62 l 171 83 l 111 83 l 111 0 z "},"ƒ":{"ha":633,"x_min":111,"x_max":417,"o":"m 157 139 q 174 73 157 97 q 214 49 190 49 l 308 49 q 359 72 347 49 q 371 140 371 94 l 371 331 l 417 331 l 417 100 q 391 33 417 64 q 325 0 365 3 l 201 0 q 132 35 153 3 q 111 111 111 68 l 111 933 q 131 1008 111 974 q 199 1044 150 1042 l 331 1044 q 394 1012 372 1042 q 417 944 417 982 l 417 600 q 409 574 417 588 q 390 550 401 561 q 365 531 379 539 q 336 518 350 522 l 157 518 l 157 139 m 157 904 l 157 567 l 310 567 q 371 626 360 574 l 371 906 q 358 974 371 951 q 306 996 344 996 l 239 996 q 174 972 190 996 q 157 904 157 949 z "},"„":{"ha":558,"x_min":111,"x_max":342,"o":"m 282 0 l 318 0 q 310 -76 317 -49 q 292 -117 304 -103 l 303 -161 q 333 -101 324 -139 q 342 0 342 -62 l 342 83 l 282 83 l 282 0 m 111 0 l 147 0 q 140 -76 146 -49 q 121 -117 133 -103 l 132 -161 q 162 -101 153 -139 q 171 0 171 -62 l 171 83 l 111 83 l 111 0 z "},"…":{"ha":729,"x_min":111,"x_max":513,"o":"m 453 0 l 513 0 l 513 83 l 453 83 l 453 0 m 282 0 l 342 0 l 342 83 l 282 83 l 282 0 m 111 0 l 171 0 l 171 83 l 111 83 l 111 0 z "},"†":{"ha":731,"x_min":111,"x_max":514,"o":"m 289 0 l 335 0 l 335 606 l 514 606 l 514 654 l 335 654 l 335 1044 l 289 1044 l 289 654 l 111 654 l 111 606 l 289 606 l 289 0 z "},"‡":{"ha":731,"x_min":111,"x_max":514,"o":"m 111 472 l 111 424 l 289 424 l 289 0 l 335 0 l 335 424 l 514 424 l 514 472 l 335 472 l 335 606 l 514 606 l 514 654 l 335 654 l 335 1044 l 289 1044 l 289 654 l 111 654 l 111 606 l 289 606 l 289 472 l 111 472 z "},"ˆ":{"ha":475,"x_min":111,"x_max":258,"o":"m 157 939 l 185 999 l 213 939 l 258 939 l 210 1044 l 160 1044 l 111 939 l 157 939 z "},"‰":{"ha":974,"x_min":111,"x_max":757,"o":"m 236 0 l 486 1044 l 432 1044 l 182 0 l 236 0 m 264 994 q 251 1027 264 1013 q 218 1044 238 1042 l 156 1044 q 122 1026 132 1042 q 111 989 111 1010 l 111 578 q 121 540 111 557 q 154 522 131 522 l 222 522 q 253 538 243 522 q 264 574 264 554 l 264 994 m 146 592 l 146 974 q 168 1011 146 1011 l 206 1011 q 225 1001 221 1011 q 229 972 229 992 l 229 592 q 225 563 229 572 q 206 554 221 554 l 178 554 q 152 564 158 554 q 146 592 146 574 m 558 472 q 545 505 558 490 q 513 522 532 519 l 450 522 q 416 503 426 519 q 406 467 406 488 l 406 56 q 415 17 406 35 q 449 0 425 0 l 517 0 q 548 16 538 0 q 558 51 558 32 l 558 472 m 440 69 l 440 451 q 463 489 440 489 l 500 489 q 519 479 515 489 q 524 450 524 469 l 524 69 q 519 41 524 50 q 500 32 515 32 l 472 32 q 447 42 453 32 q 440 69 440 51 m 757 472 q 744 505 757 490 q 711 522 731 519 l 649 522 q 615 503 625 519 q 604 467 604 488 l 604 56 q 614 17 604 35 q 647 0 624 0 l 715 0 q 747 16 736 0 q 757 51 757 32 l 757 472 m 639 69 l 639 451 q 661 489 639 489 l 699 489 q 718 479 714 489 q 722 450 722 469 l 722 69 q 718 41 722 50 q 699 32 714 32 l 671 32 q 645 42 651 32 q 639 69 639 51 z "},"Š":{"ha":635,"x_min":111,"x_max":418,"o":"m 267 1151 l 294 1211 l 340 1211 l 292 1106 l 242 1106 l 193 1211 l 239 1211 l 267 1151 m 158 906 l 158 621 q 165 576 158 593 q 210 560 171 560 l 343 560 q 365 554 351 560 q 389 539 378 549 q 408 516 400 529 q 417 486 417 503 l 417 111 q 396 35 417 68 q 326 0 375 3 l 203 0 q 137 33 163 3 q 111 100 111 64 l 111 331 l 157 331 l 157 139 q 169 71 157 93 q 219 49 181 49 l 314 49 q 358 73 346 49 q 371 139 371 97 l 371 453 q 358 497 371 482 q 306 511 346 511 l 192 511 q 140 529 167 511 q 113 588 113 547 l 113 933 q 133 1009 113 976 q 203 1044 154 1042 l 326 1044 q 392 1011 367 1042 q 418 944 418 981 l 418 714 l 372 714 l 372 904 q 360 973 372 950 q 310 996 349 996 l 215 996 q 169 972 181 996 q 158 906 158 947 z "},"‹":{"ha":433,"x_min":111,"x_max":217,"o":"m 217 510 l 157 538 l 217 565 l 217 611 l 111 563 l 111 513 l 217 464 l 217 510 z "},"Œ":{"ha":929,"x_min":111,"x_max":713,"o":"m 406 1044 l 406 990 q 374 1027 394 1013 q 325 1044 353 1042 l 201 1044 q 132 1009 153 1042 q 111 933 111 976 l 111 111 q 131 37 111 71 q 199 0 150 3 l 333 0 q 377 16 360 3 q 406 50 394 29 l 406 0 l 713 0 l 713 49 l 451 49 l 451 514 l 683 514 l 683 563 l 451 563 l 451 996 l 713 996 l 713 1044 l 406 1044 m 157 140 l 157 906 q 174 972 157 947 q 214 996 190 996 l 308 996 q 358 973 347 996 q 369 904 369 950 l 369 714 l 406 714 l 406 331 l 369 331 l 369 140 q 358 72 369 94 q 308 49 347 49 l 239 49 q 174 72 190 49 q 157 140 157 96 z "},"":{"ha":635,"x_min":111,"x_max":418,"o":"m 163 49 l 418 996 l 418 1044 l 111 1044 l 111 996 l 367 996 l 114 49 l 114 0 l 418 0 l 418 49 l 163 49 m 294 1211 l 267 1151 l 239 1211 l 193 1211 l 242 1106 l 292 1106 l 340 1211 l 294 1211 z "},"‘":{"ha":374,"x_min":111,"x_max":157,"o":"m 122 1043 l 146 1043 l 157 897 l 157 744 l 111 744 l 111 897 l 122 1043 z "},"’":{"ha":374,"x_min":111,"x_max":157,"o":"m 122 746 l 146 746 l 157 892 l 157 1044 l 111 1044 l 111 892 l 122 746 z "},"“":{"ha":517,"x_min":111,"x_max":300,"o":"m 122 1043 l 146 1043 l 157 897 l 157 744 l 111 744 l 111 897 l 122 1043 m 265 1043 l 289 1043 l 300 897 l 300 744 l 254 744 l 254 897 l 265 1043 z "},"”":{"ha":517,"x_min":111,"x_max":300,"o":"m 122 746 l 146 746 l 157 892 l 157 1044 l 111 1044 l 111 892 l 122 746 m 265 746 l 289 746 l 300 892 l 300 1044 l 254 1044 l 254 892 l 265 746 z "},"•":{"ha":542,"x_min":111,"x_max":325,"o":"m 111 140 l 111 906 q 128 972 111 947 q 168 996 144 996 l 263 996 q 313 973 301 996 q 325 904 325 950 l 325 140 q 313 72 325 94 q 263 49 301 49 l 188 49 q 125 72 139 49 q 111 140 111 96 z "},"–":{"ha":624,"x_min":111,"x_max":407,"o":"m 111 514 l 407 514 l 407 563 l 111 563 l 111 514 z "},"—":{"ha":731,"x_min":111,"x_max":514,"o":"m 111 563 l 111 514 l 514 514 l 514 563 l 111 563 z "},"˜":{"ha":525,"x_min":111,"x_max":308,"o":"m 263 1044 l 236 988 l 210 1044 l 160 1044 l 111 939 l 157 939 l 183 996 l 210 939 l 260 939 l 308 1044 l 263 1044 z "},"™":{"ha":756,"x_min":111,"x_max":539,"o":"m 111 1114 l 111 1094 l 164 1094 l 164 696 l 182 696 l 182 1094 l 235 1094 l 235 1114 l 111 1114 m 417 696 l 521 1060 l 521 696 l 539 696 l 539 1114 l 519 1114 l 410 735 l 297 1114 l 278 1114 l 278 696 l 297 696 l 297 1060 l 401 696 l 417 696 z "},"š":{"ha":635,"x_min":111,"x_max":418,"o":"m 267 1151 l 294 1211 l 340 1211 l 292 1106 l 242 1106 l 193 1211 l 239 1211 l 267 1151 m 158 906 l 158 621 q 165 576 158 593 q 210 560 171 560 l 343 560 q 365 554 351 560 q 389 539 378 549 q 408 516 400 529 q 417 486 417 503 l 417 111 q 396 35 417 68 q 326 0 375 3 l 203 0 q 137 33 163 3 q 111 100 111 64 l 111 331 l 157 331 l 157 139 q 169 71 157 93 q 219 49 181 49 l 314 49 q 358 73 346 49 q 371 139 371 97 l 371 453 q 358 497 371 482 q 306 511 346 511 l 192 511 q 140 529 167 511 q 113 588 113 547 l 113 933 q 133 1009 113 976 q 203 1044 154 1042 l 326 1044 q 392 1011 367 1042 q 418 944 418 981 l 418 714 l 372 714 l 372 904 q 360 973 372 950 q 310 996 349 996 l 215 996 q 169 972 181 996 q 158 906 158 947 z "},"›":{"ha":433,"x_min":111,"x_max":217,"o":"m 111 510 l 171 538 l 111 565 l 111 611 l 217 563 l 217 513 l 111 464 l 111 510 z "},"œ":{"ha":929,"x_min":111,"x_max":713,"o":"m 406 1044 l 406 990 q 374 1027 394 1013 q 325 1044 353 1042 l 201 1044 q 132 1009 153 1042 q 111 933 111 976 l 111 111 q 131 37 111 71 q 199 0 150 3 l 333 0 q 377 16 360 3 q 406 50 394 29 l 406 0 l 713 0 l 713 49 l 451 49 l 451 514 l 683 514 l 683 563 l 451 563 l 451 996 l 713 996 l 713 1044 l 406 1044 m 157 140 l 157 906 q 174 972 157 947 q 214 996 190 996 l 308 996 q 358 973 347 996 q 369 904 369 950 l 369 714 l 406 714 l 406 331 l 369 331 l 369 140 q 358 72 369 94 q 308 49 347 49 l 239 49 q 174 72 190 49 q 157 140 157 96 z "},"":{"ha":635,"x_min":111,"x_max":418,"o":"m 163 49 l 418 996 l 418 1044 l 111 1044 l 111 996 l 367 996 l 114 49 l 114 0 l 418 0 l 418 49 l 163 49 m 294 1211 l 267 1151 l 239 1211 l 193 1211 l 242 1106 l 292 1106 l 340 1211 l 294 1211 z "},"Ÿ":{"ha":631,"x_min":111,"x_max":414,"o":"m 239 0 l 288 0 l 288 515 l 315 515 q 348 520 331 515 q 380 535 365 525 q 404 561 394 546 q 414 599 414 576 l 414 1044 l 368 1044 l 368 622 q 315 564 368 564 l 215 564 q 157 626 157 564 l 157 1044 l 111 1044 l 111 603 q 120 563 111 579 q 144 535 129 546 q 176 520 158 525 q 211 515 193 515 l 239 515 l 239 0 m 175 1106 l 235 1106 l 235 1189 l 175 1189 l 175 1106 m 353 1189 l 293 1189 l 293 1106 l 353 1106 l 353 1189 z "},"¡":{"ha":388,"x_min":111,"x_max":171,"o":"m 164 797 l 118 797 l 118 0 l 164 0 l 164 797 m 171 1044 l 111 1044 l 111 961 l 171 961 l 171 1044 z "},"¢":{"ha":633,"x_min":111,"x_max":417,"o":"m 244 1126 l 244 1044 l 201 1044 q 135 1010 158 1044 q 111 933 111 976 l 111 111 q 131 37 111 71 q 199 0 150 3 l 244 0 l 244 -144 l 289 -144 l 289 0 l 333 0 q 396 34 375 3 q 417 103 417 65 l 417 331 l 371 331 l 371 140 q 359 72 371 94 q 308 49 347 49 l 289 49 l 289 996 l 308 996 q 359 974 347 996 q 371 906 371 951 l 371 714 l 417 714 l 417 944 q 391 1011 417 981 q 325 1044 365 1042 l 289 1044 l 289 1126 l 244 1126 m 157 140 l 157 906 q 174 972 157 947 q 214 996 190 996 l 244 996 l 244 49 l 236 49 q 172 72 188 49 q 157 140 157 96 z "},"£":{"ha":896,"x_min":111,"x_max":679,"o":"m 111 564 l 293 564 l 293 933 q 314 1009 293 976 q 383 1044 335 1042 l 507 1044 l 507 996 l 396 996 q 356 972 372 996 q 339 906 339 947 l 339 564 l 547 564 l 547 515 l 339 515 l 339 140 q 352 73 339 97 q 408 49 365 49 l 679 49 l 679 0 l 111 0 l 111 49 l 306 49 q 296 78 299 63 q 293 111 293 94 l 293 515 l 111 515 l 111 564 z "},"¤":{"ha":632,"x_min":111,"x_max":415,"o":"m 111 0 l 157 0 l 214 278 q 228 276 217 276 l 296 276 q 311 279 306 276 l 367 0 l 415 0 l 338 400 l 338 675 l 415 1044 l 367 1044 l 313 790 q 292 799 306 796 l 229 799 q 219 796 222 797 q 213 793 215 794 l 158 1044 l 111 1044 l 185 690 l 185 383 l 111 0 m 219 346 l 219 728 q 242 765 219 765 l 279 765 q 299 756 294 765 q 303 726 303 746 l 303 346 q 299 317 303 326 q 279 308 294 308 l 251 308 q 226 318 232 308 q 219 346 219 328 z "},"¥":{"ha":731,"x_min":111,"x_max":514,"o":"m 111 379 l 289 379 l 289 515 l 261 515 q 226 520 243 515 q 194 535 208 525 q 170 563 179 546 q 161 603 161 579 l 161 1044 l 207 1044 l 207 626 q 265 564 207 564 l 365 564 q 418 622 418 564 l 418 1044 l 464 1044 l 464 599 q 454 561 464 576 q 430 535 444 546 q 398 520 415 525 q 365 515 381 515 l 338 515 l 338 379 l 514 379 l 514 331 l 338 331 l 338 197 l 514 197 l 514 149 l 338 149 l 338 0 l 289 0 l 289 149 l 111 149 l 111 197 l 289 197 l 289 331 l 111 331 l 111 379 z "},"¦":{"ha":372,"x_min":111,"x_max":156,"o":"m 111 -144 l 156 -144 l 156 1126 l 111 1126 l 111 -144 z "},"§":{"ha":632,"x_min":111,"x_max":415,"o":"m 111 0 l 157 0 l 214 278 q 228 276 217 276 l 296 276 q 317 281 308 276 q 330 299 325 286 q 336 337 335 313 q 338 400 338 361 l 338 675 l 415 1044 l 367 1044 l 313 790 q 292 799 306 796 l 229 799 q 194 776 204 799 q 185 690 185 753 l 185 383 l 111 0 m 219 346 l 219 728 q 242 765 219 765 l 279 765 q 299 756 294 765 q 303 726 303 746 l 303 346 q 299 317 303 326 q 279 308 294 308 l 251 308 q 226 318 232 308 q 219 346 219 328 z "},"¨":{"ha":506,"x_min":111,"x_max":289,"o":"m 111 961 l 171 961 l 171 1044 l 111 1044 l 111 961 m 289 1044 l 229 1044 l 229 961 l 289 961 l 289 1044 z "},"©":{"ha":606,"x_min":111,"x_max":389,"o":"m 250 1114 q 317 1096 286 1114 q 369 1044 354 1076 q 389 975 389 1013 q 369 907 389 943 q 349 878 361 889 q 318 856 336 867 q 269 840 286 843 q 250 838 251 838 q 181 856 215 838 q 153 878 165 867 q 129 907 140 889 q 111 975 111 938 q 116 1010 111 994 q 129 1044 121 1026 q 151 1073 139 1060 q 182 1096 164 1086 q 250 1114 217 1114 m 250 1092 q 193 1077 221 1092 q 150 1033 165 1063 q 135 975 135 1006 q 150 919 135 947 q 192 876 167 894 l 200 874 q 250 861 243 861 q 307 876 279 861 q 350 919 332 889 q 365 975 365 947 q 350 1033 365 1006 q 306 1076 335 1061 q 250 1092 278 1092 m 294 954 l 317 947 q 250 896 303 896 q 197 917 217 896 q 178 975 178 938 q 197 1034 178 1014 q 251 1054 217 1054 q 314 1010 299 1054 l 292 1006 q 251 1033 279 1033 q 203 975 203 1033 q 249 919 203 919 q 294 954 286 919 z "},"ª":{"ha":524,"x_min":111,"x_max":307,"o":"m 175 803 l 207 1021 l 239 803 l 175 803 m 271 592 l 307 592 l 226 1114 l 188 1114 l 111 592 l 146 592 l 168 765 l 243 765 l 271 592 z "},"«":{"ha":615,"x_min":111,"x_max":399,"o":"m 399 510 l 339 538 l 399 565 l 399 611 l 293 563 l 293 513 l 399 464 l 399 510 m 217 510 l 157 538 l 217 565 l 217 611 l 111 563 l 111 513 l 217 464 l 217 510 z "},"¬":{"ha":675,"x_min":111,"x_max":458,"o":"m 111 563 l 111 514 l 410 514 l 410 364 l 458 364 l 458 563 l 111 563 z "},"­":{"ha":518,"x_min":111,"x_max":301,"o":"m 111 514 l 301 514 l 301 563 l 111 563 l 111 514 z "},"®":{"ha":606,"x_min":111,"x_max":389,"o":"m 250 1113 q 317 1094 286 1113 q 369 1043 354 1075 q 389 974 389 1011 q 369 906 389 942 q 318 854 354 874 q 271 838 290 840 q 250 836 251 836 q 181 854 211 836 q 129 906 151 872 q 111 974 111 936 q 116 1009 111 993 q 129 1043 121 1025 q 151 1072 139 1058 q 182 1094 164 1085 q 250 1113 217 1113 m 250 1090 q 193 1076 221 1090 q 150 1032 165 1061 q 135 974 135 1004 q 139 959 135 974 q 150 917 143 944 q 192 875 163 893 l 200 872 q 250 860 243 860 q 307 875 279 860 q 350 917 332 892 q 361 959 357 944 q 365 974 365 974 q 350 1032 365 1004 q 306 1075 335 1060 q 250 1090 278 1090 m 190 899 l 190 1047 l 240 1047 q 279 1042 269 1047 q 296 1029 289 1038 q 304 1006 304 1018 q 292 978 304 990 q 261 965 281 967 q 278 951 272 960 q 296 928 285 943 l 315 899 l 285 899 l 272 921 q 246 956 256 951 q 228 961 240 961 l 214 961 l 214 899 l 190 899 m 214 981 l 242 981 q 272 987 264 981 q 279 1004 279 993 q 265 1025 279 1019 q 240 1026 264 1026 l 214 1026 l 214 981 z "},"¯":{"ha":635,"x_min":111,"x_max":418,"o":"m 111 997 l 418 997 l 418 1046 l 111 1046 l 111 997 z "},"°":{"ha":388,"x_min":111,"x_max":171,"o":"m 111 961 l 171 961 l 171 1044 l 111 1044 l 111 961 z "},"±":{"ha":675,"x_min":111,"x_max":458,"o":"m 261 711 l 261 563 l 111 563 l 111 514 l 261 514 l 261 364 l 310 364 l 310 514 l 458 514 l 458 563 l 310 563 l 310 711 l 261 711 m 111 49 l 111 0 l 458 0 l 458 49 l 111 49 z "},"²":{"ha":481,"x_min":111,"x_max":264,"o":"m 232 1040 q 228 1069 232 1058 q 211 1079 224 1079 l 167 1079 q 148 1069 151 1079 q 144 1039 144 1058 l 144 942 l 111 942 l 111 1060 q 124 1095 111 1079 q 160 1114 138 1111 l 217 1114 q 253 1094 243 1111 q 264 1054 264 1076 l 264 885 q 250 851 264 861 q 222 842 236 842 l 168 842 q 149 836 153 842 q 144 819 144 831 l 144 665 q 149 635 144 646 q 165 625 153 625 l 264 625 l 264 592 l 160 592 q 122 610 133 593 q 111 651 111 628 l 111 835 q 126 865 111 853 q 151 876 142 876 l 214 876 q 230 883 228 876 q 232 900 232 889 l 232 1040 z "},"³":{"ha":481,"x_min":111,"x_max":264,"o":"m 201 625 l 167 625 q 147 635 151 625 q 143 665 143 646 l 143 764 l 111 764 l 111 647 q 122 610 111 628 q 156 592 133 592 l 218 592 q 254 611 244 593 q 264 651 264 629 l 264 1054 q 253 1094 264 1076 q 217 1114 243 1111 l 160 1114 q 124 1095 138 1111 q 111 1060 111 1079 l 111 942 l 143 942 l 143 1039 q 147 1069 143 1058 q 167 1079 151 1079 l 211 1079 q 226 1069 219 1079 q 232 1040 232 1058 l 232 879 l 135 879 l 135 843 l 232 843 l 232 665 q 226 635 232 646 q 201 625 221 625 z "},"´":{"ha":407,"x_min":111,"x_max":190,"o":"m 111 939 l 140 1044 l 190 1044 l 142 939 l 111 939 z "},"µ":{"ha":629,"x_min":110,"x_max":411,"o":"m 411 0 l 365 0 l 365 463 l 246 463 q 199 481 222 463 q 155 535 175 499 q 122 627 135 571 q 110 758 110 683 q 126 885 110 831 q 163 974 142 939 q 208 1027 185 1010 q 244 1044 231 1044 l 411 1044 l 411 0 m 365 511 l 365 996 l 276 996 q 220 974 243 996 q 184 917 197 951 q 164 840 171 882 q 154 756 157 797 q 163 675 158 718 q 177 595 167 632 q 208 535 188 558 q 265 511 228 511 l 365 511 z "},"¶":{"ha":1219,"x_min":42,"x_max":1178,"o":"m 1178 354 l 1176 351 l 1161 317 l 1094 317 l 1138 251 q 1140 242 1140 249 l 1140 235 q 1118 199 1140 208 l 1043 217 l 1035 118 q 1006 99 1026 99 q 973 106 988 99 q 936 126 958 114 l 928 131 l 856 42 l 817 32 l 771 82 l 628 0 l 604 8 l 604 57 l 417 25 l 393 42 l 401 82 l 207 100 l 207 131 l 231 160 l 108 185 q 86 217 86 185 l 133 258 l 49 301 l 42 342 l 124 358 l 81 418 l 86 467 l 175 458 q 210 576 175 576 l 214 576 l 297 543 q 347 610 326 588 q 388 642 367 633 l 456 594 l 592 669 l 621 642 l 615 618 l 621 608 l 771 642 l 825 636 l 817 585 l 996 585 l 1011 568 q 982 521 1011 522 l 1135 475 l 1135 465 q 1079 418 1135 426 q 1178 354 1178 376 m 1154 342 l 1147 358 l 1025 426 l 1101 450 l 1111 450 l 1101 467 l 928 510 l 989 560 l 786 560 l 801 618 l 604 585 l 599 636 l 583 642 l 447 568 l 388 618 l 307 521 q 288 515 297 515 q 214 551 263 515 l 200 433 l 103 443 l 108 408 l 161 333 l 65 326 l 193 251 l 108 210 l 290 164 l 231 118 l 439 108 l 417 51 l 604 90 l 628 57 l 621 25 l 771 108 l 839 57 l 914 160 l 1011 124 l 1018 242 l 1118 224 q 1120 232 1119 231 q 1121 233 1121 233 q 1058 333 1121 254 l 1154 342 m 1007 401 l 993 293 l 971 296 l 975 410 l 1007 401 m 996 247 l 975 224 l 958 242 l 975 257 l 996 247 m 938 256 q 858 328 906 256 l 858 257 l 836 254 l 836 401 l 911 306 l 915 410 l 938 401 l 938 256 m 814 257 l 796 261 q 764 296 783 296 q 732 261 749 296 l 703 261 q 758 408 714 339 q 776 413 760 413 q 814 365 800 413 l 814 257 m 690 410 l 682 264 l 650 254 l 664 401 l 690 410 m 625 250 q 544 321 594 250 l 544 251 l 521 247 l 521 396 l 599 301 l 604 401 l 625 396 l 625 250 m 506 354 q 456 250 493 250 q 443 248 449 249 q 433 247 438 247 q 388 271 399 247 q 438 401 388 368 l 451 401 q 506 354 496 401 m 378 407 l 375 369 q 370 373 372 372 q 368 374 368 374 q 361 375 368 375 q 325 354 343 375 q 306 293 306 326 q 333 264 306 264 q 358 268 354 264 l 361 243 q 345 238 350 240 q 333 236 340 236 q 282 301 294 236 q 281 313 281 303 l 281 321 q 378 407 281 390 m 267 401 l 258 258 l 231 247 l 243 397 l 267 401 m 789 328 l 772 378 l 747 328 l 789 328 m 481 332 q 478 349 481 346 q 453 368 467 368 q 414 321 431 368 l 414 311 q 435 275 414 275 q 469 289 447 275 q 478 310 476 300 q 481 332 481 319 z "},"·":{"ha":388,"x_min":111,"x_max":171,"o":"m 111 499 l 171 499 l 171 582 l 111 582 l 111 499 z "},"¸":{"ha":400,"x_min":86,"x_max":183,"o":"m 135 0 l 183 0 l 183 -149 l 86 -149 l 86 -100 l 135 -100 l 135 0 z "},"¹":{"ha":414,"x_min":111,"x_max":197,"o":"m 111 1114 l 111 1081 l 167 1081 l 167 593 l 197 593 l 197 1114 l 111 1114 z "},"º":{"ha":481,"x_min":111,"x_max":264,"o":"m 264 1064 q 251 1097 264 1082 q 218 1114 238 1111 l 156 1114 q 122 1095 132 1111 q 111 1058 111 1079 l 111 647 q 121 609 111 626 q 154 592 131 592 l 222 592 q 253 608 243 592 q 264 643 264 624 l 264 1064 m 146 661 l 146 1043 q 168 1081 146 1081 l 206 1081 q 225 1071 221 1081 q 229 1042 229 1061 l 229 661 q 225 633 229 642 q 206 624 221 624 l 178 624 q 152 633 158 624 q 146 661 146 643 z "},"»":{"ha":615,"x_min":111,"x_max":399,"o":"m 111 510 l 171 538 l 111 565 l 111 611 l 217 563 l 217 513 l 111 464 l 111 510 m 293 510 l 353 538 l 293 565 l 293 611 l 399 563 l 399 513 l 293 464 l 293 510 z "},"¼":{"ha":749,"x_min":111,"x_max":532,"o":"m 208 0 l 458 1044 l 404 1044 l 154 0 l 208 0 m 111 1043 l 111 1010 l 167 1010 l 167 522 l 197 522 l 197 1043 l 111 1043 m 501 0 l 532 0 l 532 522 l 501 522 l 501 288 l 413 288 l 413 522 l 381 522 l 381 251 l 501 251 l 501 0 z "},"½":{"ha":746,"x_min":111,"x_max":529,"o":"m 497 449 l 497 308 q 495 291 497 297 q 479 285 493 285 l 417 285 q 392 273 407 285 q 376 243 376 261 l 376 60 q 388 18 376 36 q 425 0 399 0 l 529 0 l 529 33 l 431 33 q 414 44 418 33 q 410 74 410 54 l 410 228 q 414 244 410 239 q 433 250 418 250 l 488 250 q 515 260 501 250 q 529 293 529 269 l 529 463 q 519 502 529 485 q 482 522 508 519 l 425 522 q 390 503 403 519 q 376 468 376 488 l 376 350 l 410 350 l 410 447 q 413 477 410 467 q 432 488 417 488 l 476 488 q 493 477 489 488 q 497 449 497 467 m 208 0 l 458 1044 l 404 1044 l 154 0 l 208 0 m 111 1043 l 111 1010 l 167 1010 l 167 522 l 197 522 l 197 1043 l 111 1043 z "},"¾":{"ha":775,"x_min":111,"x_max":558,"o":"m 235 0 l 485 1044 l 431 1044 l 181 0 l 235 0 m 528 0 l 558 0 l 558 522 l 528 522 l 528 288 l 439 288 l 439 522 l 407 522 l 407 251 l 528 251 l 528 0 m 201 554 l 167 554 q 147 565 151 554 q 143 594 143 575 l 143 693 l 111 693 l 111 576 q 122 539 111 557 q 156 521 133 521 l 218 521 q 254 540 244 522 q 264 581 264 558 l 264 983 q 253 1023 264 1006 q 217 1043 243 1040 l 160 1043 q 124 1024 138 1040 q 111 989 111 1008 l 111 871 l 143 871 l 143 968 q 147 998 143 988 q 167 1008 151 1008 l 211 1008 q 226 998 219 1008 q 232 969 232 988 l 232 808 l 135 808 l 135 772 l 232 772 l 232 594 q 226 565 232 575 q 201 554 221 554 z "},"¿":{"ha":633,"x_min":111,"x_max":417,"o":"m 157 424 q 163 468 157 451 q 208 485 169 485 l 240 485 q 262 490 249 485 q 286 506 275 496 q 306 528 297 515 q 314 558 314 542 l 314 756 l 268 756 l 268 592 q 256 548 268 563 q 203 533 243 533 l 190 533 q 138 515 165 533 q 111 457 111 497 l 111 111 q 132 35 111 68 q 201 0 153 3 l 325 0 q 391 33 365 3 q 417 100 417 64 l 417 331 l 369 331 l 369 140 q 358 72 369 94 q 308 49 347 49 l 214 49 q 168 73 179 49 q 157 139 157 97 l 157 424 m 324 1044 l 264 1044 l 264 961 l 324 961 l 324 1044 z "},"À":{"ha":714,"x_min":111,"x_max":497,"o":"m 331 1106 l 301 1211 l 251 1211 l 300 1106 l 331 1106 m 447 0 l 497 0 l 331 1044 l 271 1044 l 111 0 l 161 0 l 213 356 l 390 356 l 447 0 m 301 946 l 382 410 l 219 410 l 301 946 z "},"Á":{"ha":714,"x_min":111,"x_max":497,"o":"m 301 1106 l 350 1211 l 300 1211 l 271 1106 l 301 1106 m 447 0 l 497 0 l 331 1044 l 271 1044 l 111 0 l 161 0 l 213 356 l 390 356 l 447 0 m 301 946 l 382 410 l 219 410 l 301 946 z "},"Â":{"ha":714,"x_min":111,"x_max":497,"o":"m 274 1106 l 301 1165 l 329 1106 l 375 1106 l 326 1211 l 276 1211 l 228 1106 l 274 1106 m 447 0 l 497 0 l 331 1044 l 271 1044 l 111 0 l 161 0 l 213 356 l 390 356 l 447 0 m 301 946 l 382 410 l 219 410 l 301 946 z "},"Ã":{"ha":714,"x_min":111,"x_max":497,"o":"m 353 1211 l 326 1154 l 300 1211 l 250 1211 l 201 1106 l 247 1106 l 274 1163 l 300 1106 l 350 1106 l 399 1211 l 353 1211 m 447 0 l 497 0 l 331 1044 l 271 1044 l 111 0 l 161 0 l 213 356 l 390 356 l 447 0 m 301 946 l 382 410 l 219 410 l 301 946 z "},"Ä":{"ha":714,"x_min":111,"x_max":497,"o":"m 447 0 l 497 0 l 331 1044 l 271 1044 l 111 0 l 161 0 l 213 356 l 390 356 l 447 0 m 301 946 l 382 410 l 219 410 l 301 946 m 211 1106 l 271 1106 l 271 1189 l 211 1189 l 211 1106 m 389 1189 l 329 1189 l 329 1106 l 389 1106 l 389 1189 z "},"Å":{"ha":714,"x_min":111,"x_max":497,"o":"m 447 0 l 497 0 l 331 1044 l 271 1044 l 111 0 l 161 0 l 213 356 l 390 356 l 447 0 m 301 946 l 382 410 l 219 410 l 301 946 m 271 1106 l 331 1106 l 331 1189 l 271 1189 l 271 1106 z "},"Æ":{"ha":972,"x_min":111,"x_max":756,"o":"m 447 0 l 390 356 l 213 356 l 161 0 l 111 0 l 271 1044 l 331 1044 l 449 304 l 449 1044 l 756 1044 l 756 996 l 494 996 l 494 563 l 726 563 l 726 514 l 494 514 l 494 49 l 756 49 l 756 0 l 447 0 m 301 946 l 219 410 l 382 410 l 301 946 z "},"Ç":{"ha":633,"x_min":111,"x_max":417,"o":"m 157 140 q 172 72 157 96 q 236 49 188 49 l 308 49 q 359 72 347 49 q 371 140 371 94 l 371 331 l 417 331 l 417 103 q 396 34 417 65 q 333 0 375 3 l 296 0 l 296 -149 l 199 -149 l 199 -100 l 247 -100 l 247 0 l 199 0 q 131 37 150 3 q 111 111 111 71 l 111 933 q 135 1010 111 976 q 201 1044 158 1044 l 325 1044 q 391 1011 365 1042 q 417 944 417 981 l 417 714 l 371 714 l 371 906 q 359 974 371 951 q 308 996 347 996 l 214 996 q 174 972 190 996 q 157 906 157 947 l 157 140 z "},"È":{"ha":635,"x_min":111,"x_max":418,"o":"m 111 0 l 418 0 l 418 49 l 157 49 l 157 514 l 389 514 l 389 563 l 157 563 l 157 996 l 418 996 l 418 1044 l 111 1044 l 111 0 m 293 1106 l 264 1211 l 214 1211 l 263 1106 l 293 1106 z "},"É":{"ha":635,"x_min":111,"x_max":418,"o":"m 111 0 l 418 0 l 418 49 l 157 49 l 157 514 l 389 514 l 389 563 l 157 563 l 157 996 l 418 996 l 418 1044 l 111 1044 l 111 0 m 265 1106 l 314 1211 l 264 1211 l 235 1106 l 265 1106 z "},"Ê":{"ha":635,"x_min":111,"x_max":418,"o":"m 111 0 l 418 0 l 418 49 l 157 49 l 157 514 l 389 514 l 389 563 l 157 563 l 157 996 l 418 996 l 418 1044 l 111 1044 l 111 0 m 239 1106 l 267 1165 l 294 1106 l 340 1106 l 292 1211 l 242 1211 l 193 1106 l 239 1106 z "},"Ë":{"ha":635,"x_min":111,"x_max":418,"o":"m 111 0 l 418 0 l 418 49 l 157 49 l 157 514 l 389 514 l 389 563 l 157 563 l 157 996 l 418 996 l 418 1044 l 111 1044 l 111 0 m 175 1106 l 235 1106 l 235 1189 l 175 1189 l 175 1106 m 353 1189 l 293 1189 l 293 1106 l 353 1106 l 353 1189 z "},"Ì":{"ha":378,"x_min":92,"x_max":171,"o":"m 111 0 l 161 0 l 161 1044 l 111 1044 l 111 0 m 171 1107 l 142 1213 l 92 1213 l 140 1107 l 171 1107 z "},"Í":{"ha":378,"x_min":100,"x_max":179,"o":"m 111 0 l 161 0 l 161 1044 l 111 1044 l 111 0 m 131 1107 l 179 1213 l 129 1213 l 100 1107 l 131 1107 z "},"Î":{"ha":378,"x_min":63,"x_max":210,"o":"m 111 0 l 161 0 l 161 1044 l 111 1044 l 111 0 m 108 1106 l 136 1165 l 164 1106 l 210 1106 l 161 1211 l 111 1211 l 63 1106 l 108 1106 z "},"Ï":{"ha":378,"x_min":49,"x_max":226,"o":"m 111 0 l 161 0 l 161 1044 l 111 1044 l 111 0 m 49 1106 l 108 1106 l 108 1189 l 49 1189 l 49 1106 m 226 1189 l 167 1189 l 167 1106 l 226 1106 l 226 1189 z "},"Ð":{"ha":742,"x_min":111,"x_max":525,"o":"m 111 514 l 217 514 l 217 0 l 335 0 q 392 22 364 0 q 439 78 419 43 q 467 137 451 100 q 494 226 482 174 q 516 346 507 278 q 525 499 525 414 l 525 525 q 510 772 525 664 q 467 949 496 881 q 411 1015 443 985 q 344 1044 379 1044 l 217 1044 l 217 563 l 111 563 l 111 514 m 263 49 l 263 514 l 361 514 l 361 563 l 263 563 l 263 996 l 321 996 q 352 988 338 996 q 381 968 367 981 q 447 826 428 928 q 458 782 453 811 q 467 716 463 753 q 474 639 471 679 q 476 560 476 599 q 471 418 476 483 q 463 317 465 353 q 451 243 460 288 q 425 157 442 199 q 383 84 408 115 q 321 49 357 53 l 263 49 z "},"Ñ":{"ha":633,"x_min":111,"x_max":417,"o":"m 157 0 l 157 864 l 367 0 l 417 0 l 417 1044 l 371 1044 l 371 176 l 163 1044 l 111 1044 l 111 0 l 157 0 m 319 1211 l 293 1154 l 267 1211 l 217 1211 l 168 1106 l 214 1106 l 240 1163 l 267 1106 l 317 1106 l 365 1211 l 319 1211 z "},"Ò":{"ha":633,"x_min":111,"x_max":417,"o":"m 417 944 q 391 1011 417 981 q 325 1044 365 1042 l 201 1044 q 132 1010 153 1044 q 111 933 111 976 l 111 111 q 131 37 111 71 q 199 0 150 3 l 333 0 q 396 34 375 3 q 417 103 417 65 l 417 944 m 157 140 l 157 906 q 174 972 157 947 q 214 996 190 996 l 308 996 q 359 973 347 996 q 371 904 371 950 l 371 140 q 359 72 371 94 q 308 49 347 49 l 233 49 q 171 72 185 49 q 157 140 157 96 m 293 1106 l 264 1211 l 214 1211 l 263 1106 l 293 1106 z "},"Ó":{"ha":633,"x_min":111,"x_max":417,"o":"m 417 944 q 391 1011 417 981 q 325 1044 365 1042 l 201 1044 q 132 1010 153 1044 q 111 933 111 976 l 111 111 q 131 37 111 71 q 199 0 150 3 l 333 0 q 396 34 375 3 q 417 103 417 65 l 417 944 m 157 140 l 157 906 q 174 972 157 947 q 214 996 190 996 l 308 996 q 359 973 347 996 q 371 904 371 950 l 371 140 q 359 72 371 94 q 308 49 347 49 l 233 49 q 171 72 185 49 q 157 140 157 96 m 265 1106 l 314 1211 l 264 1211 l 235 1106 l 265 1106 z "},"Ô":{"ha":633,"x_min":111,"x_max":417,"o":"m 417 944 q 391 1011 417 981 q 325 1044 365 1042 l 201 1044 q 132 1010 153 1044 q 111 933 111 976 l 111 111 q 131 37 111 71 q 199 0 150 3 l 333 0 q 396 34 375 3 q 417 103 417 65 l 417 944 m 157 140 l 157 906 q 174 972 157 947 q 214 996 190 996 l 308 996 q 359 973 347 996 q 371 904 371 950 l 371 140 q 359 72 371 94 q 308 49 347 49 l 233 49 q 171 72 185 49 q 157 140 157 96 m 239 1106 l 267 1165 l 294 1106 l 340 1106 l 292 1211 l 242 1211 l 193 1106 l 239 1106 z "},"Õ":{"ha":633,"x_min":111,"x_max":417,"o":"m 417 944 q 391 1011 417 981 q 325 1044 365 1042 l 201 1044 q 132 1010 153 1044 q 111 933 111 976 l 111 111 q 131 37 111 71 q 199 0 150 3 l 333 0 q 396 34 375 3 q 417 103 417 65 l 417 944 m 157 140 l 157 906 q 174 972 157 947 q 214 996 190 996 l 308 996 q 359 973 347 996 q 371 904 371 950 l 371 140 q 359 72 371 94 q 308 49 347 49 l 233 49 q 171 72 185 49 q 157 140 157 96 m 319 1211 l 293 1154 l 267 1211 l 217 1211 l 168 1106 l 214 1106 l 240 1163 l 267 1106 l 317 1106 l 365 1211 l 319 1211 z "},"Ö":{"ha":633,"x_min":111,"x_max":417,"o":"m 175 1106 l 235 1106 l 235 1189 l 175 1189 l 175 1106 m 353 1189 l 293 1189 l 293 1106 l 353 1106 l 353 1189 m 417 944 q 391 1011 417 981 q 325 1044 365 1042 l 201 1044 q 132 1010 153 1044 q 111 933 111 976 l 111 111 q 131 37 111 71 q 199 0 150 3 l 333 0 q 396 34 375 3 q 417 103 417 65 l 417 944 m 157 140 l 157 906 q 174 972 157 947 q 214 996 190 996 l 308 996 q 359 973 347 996 q 371 904 371 950 l 371 140 q 359 72 371 94 q 308 49 347 49 l 233 49 q 171 72 185 49 q 157 140 157 96 z "},"×":{"ha":607,"x_min":111,"x_max":390,"o":"m 356 676 l 251 572 l 144 678 l 111 643 l 217 538 l 111 432 l 144 397 l 251 503 l 356 399 l 390 432 l 285 538 l 390 643 l 356 676 z "},"Ø":{"ha":633,"x_min":111,"x_max":417,"o":"m 417 944 q 391 1011 417 981 q 325 1044 365 1042 l 201 1044 q 132 1010 153 1044 q 111 933 111 976 l 111 111 q 131 37 111 71 q 199 0 150 3 l 333 0 q 396 34 375 3 q 417 103 417 65 l 417 944 m 308 49 l 233 49 q 182 60 201 49 l 371 886 l 371 140 q 359 72 371 94 q 308 49 347 49 m 157 906 q 174 972 157 947 q 214 996 190 996 l 308 996 q 340 989 322 996 l 157 183 l 157 906 z "},"Ù":{"ha":633,"x_min":111,"x_max":417,"o":"m 371 140 q 354 72 371 96 q 289 49 338 49 l 219 49 q 169 72 181 49 q 157 140 157 94 l 157 1044 l 111 1044 l 111 103 q 132 34 111 65 q 194 0 153 3 l 329 0 q 397 37 378 3 q 417 111 417 71 l 417 1044 l 371 1044 l 371 140 m 293 1106 l 264 1211 l 214 1211 l 263 1106 l 293 1106 z "},"Ú":{"ha":633,"x_min":111,"x_max":417,"o":"m 265 1106 l 314 1211 l 264 1211 l 235 1106 l 265 1106 m 371 140 q 354 72 371 96 q 289 49 338 49 l 219 49 q 169 72 181 49 q 157 140 157 94 l 157 1044 l 111 1044 l 111 103 q 132 34 111 65 q 194 0 153 3 l 329 0 q 397 37 378 3 q 417 111 417 71 l 417 1044 l 371 1044 l 371 140 z "},"Û":{"ha":633,"x_min":111,"x_max":417,"o":"m 371 140 q 354 72 371 96 q 289 49 338 49 l 219 49 q 169 72 181 49 q 157 140 157 94 l 157 1044 l 111 1044 l 111 103 q 132 34 111 65 q 194 0 153 3 l 329 0 q 397 37 378 3 q 417 111 417 71 l 417 1044 l 371 1044 l 371 140 m 239 1106 l 267 1165 l 294 1106 l 340 1106 l 292 1211 l 242 1211 l 193 1106 l 239 1106 z "},"Ü":{"ha":633,"x_min":111,"x_max":417,"o":"m 157 140 l 157 1044 l 111 1044 l 111 111 q 131 37 111 71 q 199 0 150 3 l 333 0 q 396 34 375 3 q 417 103 417 65 l 417 1044 l 371 1044 l 371 140 q 359 72 371 94 q 308 49 347 49 l 239 49 q 174 72 190 49 q 157 140 157 96 m 175 1106 l 235 1106 l 235 1189 l 175 1189 l 175 1106 m 353 1189 l 293 1189 l 293 1106 l 353 1106 l 353 1189 z "},"Ý":{"ha":631,"x_min":111,"x_max":414,"o":"m 239 0 l 288 0 l 288 515 l 315 515 q 348 520 331 515 q 380 535 365 525 q 404 561 394 546 q 414 599 414 576 l 414 1044 l 368 1044 l 368 622 q 315 564 368 564 l 215 564 q 157 626 157 564 l 157 1044 l 111 1044 l 111 603 q 120 563 111 579 q 144 535 129 546 q 176 520 158 525 q 211 515 193 515 l 239 515 l 239 0 m 265 1106 l 314 1211 l 264 1211 l 235 1106 l 265 1106 z "},"Þ":{"ha":629,"x_min":111,"x_max":413,"o":"m 111 0 l 111 1044 l 157 1044 l 157 819 l 278 819 q 314 802 292 819 q 358 749 336 785 q 397 660 381 714 q 413 533 413 606 q 400 402 413 458 q 367 310 388 346 q 323 256 347 274 q 276 238 299 238 l 157 238 l 157 0 l 111 0 m 157 286 l 257 286 q 315 310 294 286 q 345 370 335 333 q 360 450 356 407 q 368 531 364 493 q 358 615 365 572 q 338 692 351 657 q 302 749 325 726 q 246 771 279 771 l 157 771 l 157 286 z "},"ß":{"ha":633,"x_min":111,"x_max":417,"o":"m 111 -144 l 111 944 q 137 1011 111 981 q 203 1044 163 1042 l 326 1044 q 396 1009 375 1042 q 417 933 417 976 l 417 111 q 397 37 417 71 q 329 0 378 3 l 246 0 l 246 49 l 292 49 q 356 72 340 49 q 371 140 371 96 l 371 515 l 246 515 l 246 564 l 371 564 l 371 906 q 354 972 371 947 q 314 996 338 996 l 219 996 q 168 973 181 996 q 156 904 156 950 l 156 -144 l 111 -144 z "},"à":{"ha":714,"x_min":111,"x_max":497,"o":"m 301 943 l 447 0 l 497 0 l 331 1044 l 271 1044 l 111 0 l 161 0 l 301 943 m 331 1106 l 301 1211 l 251 1211 l 300 1106 l 331 1106 z "},"á":{"ha":714,"x_min":111,"x_max":497,"o":"m 301 943 l 447 0 l 497 0 l 331 1044 l 271 1044 l 111 0 l 161 0 l 301 943 m 301 1106 l 350 1211 l 300 1211 l 271 1106 l 301 1106 z "},"â":{"ha":714,"x_min":111,"x_max":497,"o":"m 301 943 l 447 0 l 497 0 l 331 1044 l 271 1044 l 111 0 l 161 0 l 301 943 m 274 1106 l 301 1165 l 329 1106 l 375 1106 l 326 1211 l 276 1211 l 228 1106 l 274 1106 z "},"ã":{"ha":714,"x_min":111,"x_max":497,"o":"m 301 943 l 447 0 l 497 0 l 331 1044 l 271 1044 l 111 0 l 161 0 l 301 943 m 353 1211 l 326 1154 l 300 1211 l 250 1211 l 201 1106 l 247 1106 l 274 1163 l 300 1106 l 350 1106 l 399 1211 l 353 1211 z "},"ä":{"ha":714,"x_min":111,"x_max":497,"o":"m 301 943 l 447 0 l 497 0 l 331 1044 l 271 1044 l 111 0 l 161 0 l 301 943 m 211 1106 l 271 1106 l 271 1189 l 211 1189 l 211 1106 m 389 1189 l 329 1189 l 329 1106 l 389 1106 l 389 1189 z "},"å":{"ha":714,"x_min":111,"x_max":497,"o":"m 301 943 l 447 0 l 497 0 l 331 1044 l 271 1044 l 111 0 l 161 0 l 301 943 m 271 1106 l 331 1106 l 331 1189 l 271 1189 l 271 1106 z "},"æ":{"ha":969,"x_min":111,"x_max":753,"o":"m 301 943 l 161 0 l 111 0 l 271 1044 l 331 1044 l 446 322 l 446 1044 l 753 1044 l 753 996 l 492 996 l 492 563 l 724 563 l 724 514 l 492 514 l 492 49 l 753 49 l 753 0 l 446 0 l 301 943 z "},"ç":{"ha":633,"x_min":111,"x_max":417,"o":"m 157 140 q 172 72 157 96 q 236 49 188 49 l 308 49 q 359 72 347 49 q 371 140 371 94 l 371 331 l 417 331 l 417 103 q 396 34 417 65 q 333 0 375 3 l 296 0 l 296 -149 l 199 -149 l 199 -100 l 247 -100 l 247 0 l 199 0 q 131 37 150 3 q 111 111 111 71 l 111 933 q 135 1010 111 976 q 201 1044 158 1044 l 325 1044 q 391 1011 365 1042 q 417 944 417 981 l 417 714 l 371 714 l 371 906 q 359 974 371 951 q 308 996 347 996 l 214 996 q 174 972 190 996 q 157 906 157 947 l 157 140 z "},"è":{"ha":635,"x_min":111,"x_max":418,"o":"m 111 0 l 418 0 l 418 49 l 157 49 l 157 514 l 389 514 l 389 563 l 157 563 l 157 996 l 418 996 l 418 1044 l 111 1044 l 111 0 m 293 1106 l 264 1211 l 214 1211 l 263 1106 l 293 1106 z "},"é":{"ha":635,"x_min":111,"x_max":418,"o":"m 111 0 l 418 0 l 418 49 l 157 49 l 157 514 l 389 514 l 389 563 l 157 563 l 157 996 l 418 996 l 418 1044 l 111 1044 l 111 0 m 265 1106 l 314 1211 l 264 1211 l 235 1106 l 265 1106 z "},"ê":{"ha":635,"x_min":111,"x_max":418,"o":"m 111 0 l 418 0 l 418 49 l 157 49 l 157 514 l 389 514 l 389 563 l 157 563 l 157 996 l 418 996 l 418 1044 l 111 1044 l 111 0 m 239 1106 l 267 1165 l 294 1106 l 340 1106 l 292 1211 l 242 1211 l 193 1106 l 239 1106 z "},"ë":{"ha":635,"x_min":111,"x_max":418,"o":"m 111 0 l 418 0 l 418 49 l 157 49 l 157 514 l 389 514 l 389 563 l 157 563 l 157 996 l 418 996 l 418 1044 l 111 1044 l 111 0 m 175 1106 l 235 1106 l 235 1189 l 175 1189 l 175 1106 m 353 1189 l 293 1189 l 293 1106 l 353 1106 l 353 1189 z "},"ì":{"ha":378,"x_min":92,"x_max":171,"o":"m 111 0 l 161 0 l 161 1044 l 111 1044 l 111 0 m 171 1107 l 142 1213 l 92 1213 l 140 1107 l 171 1107 z "},"í":{"ha":378,"x_min":100,"x_max":179,"o":"m 111 0 l 161 0 l 161 1044 l 111 1044 l 111 0 m 131 1107 l 179 1213 l 129 1213 l 100 1107 l 131 1107 z "},"î":{"ha":378,"x_min":63,"x_max":210,"o":"m 111 0 l 161 0 l 161 1044 l 111 1044 l 111 0 m 108 1106 l 136 1165 l 164 1106 l 210 1106 l 161 1211 l 111 1211 l 63 1106 l 108 1106 z "},"ï":{"ha":378,"x_min":49,"x_max":226,"o":"m 111 0 l 161 0 l 161 1044 l 111 1044 l 111 0 m 49 1106 l 108 1106 l 108 1189 l 49 1189 l 49 1106 m 226 1189 l 167 1189 l 167 1106 l 226 1106 l 226 1189 z "},"ð":{"ha":633,"x_min":111,"x_max":417,"o":"m 371 906 q 354 972 371 947 q 314 996 338 996 l 218 996 q 168 973 179 996 q 157 904 157 950 l 157 714 l 111 714 l 111 944 q 137 1011 111 981 q 203 1044 163 1042 l 326 1044 q 396 1009 375 1042 q 417 933 417 976 l 417 111 q 397 37 417 71 q 329 0 378 3 l 197 0 q 133 33 156 3 q 111 100 111 63 l 111 439 q 133 492 111 465 q 183 526 156 518 l 371 526 l 371 906 m 371 140 l 371 478 l 218 478 q 157 419 167 471 l 157 140 q 170 72 157 94 q 222 49 183 49 l 289 49 q 354 72 338 49 q 371 140 371 96 z "},"ñ":{"ha":633,"x_min":111,"x_max":417,"o":"m 157 0 l 157 864 l 367 0 l 417 0 l 417 1044 l 371 1044 l 371 176 l 163 1044 l 111 1044 l 111 0 l 157 0 m 319 1211 l 293 1154 l 267 1211 l 217 1211 l 168 1106 l 214 1106 l 240 1163 l 267 1106 l 317 1106 l 365 1211 l 319 1211 z "},"ò":{"ha":633,"x_min":111,"x_max":417,"o":"m 417 944 q 391 1011 417 981 q 325 1044 365 1042 l 201 1044 q 132 1010 153 1044 q 111 933 111 976 l 111 111 q 131 37 111 71 q 199 0 150 3 l 333 0 q 396 34 375 3 q 417 103 417 65 l 417 944 m 157 140 l 157 906 q 174 972 157 947 q 214 996 190 996 l 308 996 q 359 973 347 996 q 371 904 371 950 l 371 140 q 359 72 371 94 q 308 49 347 49 l 233 49 q 171 72 185 49 q 157 140 157 96 m 293 1106 l 264 1211 l 214 1211 l 263 1106 l 293 1106 z "},"ó":{"ha":633,"x_min":111,"x_max":417,"o":"m 417 944 q 391 1011 417 981 q 325 1044 365 1042 l 201 1044 q 132 1010 153 1044 q 111 933 111 976 l 111 111 q 131 37 111 71 q 199 0 150 3 l 333 0 q 396 34 375 3 q 417 103 417 65 l 417 944 m 157 140 l 157 906 q 174 972 157 947 q 214 996 190 996 l 308 996 q 359 973 347 996 q 371 904 371 950 l 371 140 q 359 72 371 94 q 308 49 347 49 l 233 49 q 171 72 185 49 q 157 140 157 96 m 265 1106 l 314 1211 l 264 1211 l 235 1106 l 265 1106 z "},"ô":{"ha":633,"x_min":111,"x_max":417,"o":"m 417 944 q 391 1011 417 981 q 325 1044 365 1042 l 201 1044 q 132 1010 153 1044 q 111 933 111 976 l 111 111 q 131 37 111 71 q 199 0 150 3 l 333 0 q 396 34 375 3 q 417 103 417 65 l 417 944 m 157 140 l 157 906 q 174 972 157 947 q 214 996 190 996 l 308 996 q 359 973 347 996 q 371 904 371 950 l 371 140 q 359 72 371 94 q 308 49 347 49 l 233 49 q 171 72 185 49 q 157 140 157 96 m 239 1106 l 267 1165 l 294 1106 l 340 1106 l 292 1211 l 242 1211 l 193 1106 l 239 1106 z "},"õ":{"ha":633,"x_min":111,"x_max":417,"o":"m 417 944 q 391 1011 417 981 q 325 1044 365 1042 l 201 1044 q 132 1010 153 1044 q 111 933 111 976 l 111 111 q 131 37 111 71 q 199 0 150 3 l 333 0 q 396 34 375 3 q 417 103 417 65 l 417 944 m 157 140 l 157 906 q 174 972 157 947 q 214 996 190 996 l 308 996 q 359 973 347 996 q 371 904 371 950 l 371 140 q 359 72 371 94 q 308 49 347 49 l 233 49 q 171 72 185 49 q 157 140 157 96 m 319 1211 l 293 1154 l 267 1211 l 217 1211 l 168 1106 l 214 1106 l 240 1163 l 267 1106 l 317 1106 l 365 1211 l 319 1211 z "},"ö":{"ha":633,"x_min":111,"x_max":417,"o":"m 175 1106 l 235 1106 l 235 1189 l 175 1189 l 175 1106 m 353 1189 l 293 1189 l 293 1106 l 353 1106 l 353 1189 m 417 944 q 391 1011 417 981 q 325 1044 365 1042 l 201 1044 q 132 1010 153 1044 q 111 933 111 976 l 111 111 q 131 37 111 71 q 199 0 150 3 l 333 0 q 396 34 375 3 q 417 103 417 65 l 417 944 m 157 140 l 157 906 q 174 972 157 947 q 214 996 190 996 l 308 996 q 359 973 347 996 q 371 904 371 950 l 371 140 q 359 72 371 94 q 308 49 347 49 l 233 49 q 171 72 185 49 q 157 140 157 96 z "},"÷":{"ha":731,"x_min":111,"x_max":514,"o":"m 111 563 l 111 514 l 514 514 l 514 563 l 111 563 m 288 613 l 347 613 l 347 696 l 288 696 l 288 613 m 346 457 l 286 457 l 286 374 l 346 374 l 346 457 z "},"ø":{"ha":633,"x_min":111,"x_max":417,"o":"m 417 944 q 391 1011 417 981 q 325 1044 365 1042 l 201 1044 q 132 1010 153 1044 q 111 933 111 976 l 111 111 q 131 37 111 71 q 199 0 150 3 l 333 0 q 396 34 375 3 q 417 103 417 65 l 417 944 m 308 49 l 233 49 q 182 60 201 49 l 371 886 l 371 140 q 359 72 371 94 q 308 49 347 49 m 157 906 q 174 972 157 947 q 214 996 190 996 l 308 996 q 340 989 322 996 l 157 183 l 157 906 z "},"ù":{"ha":633,"x_min":111,"x_max":417,"o":"m 371 140 q 354 72 371 96 q 289 49 338 49 l 219 49 q 169 72 181 49 q 157 140 157 94 l 157 1044 l 111 1044 l 111 103 q 132 34 111 65 q 194 0 153 3 l 329 0 q 397 37 378 3 q 417 111 417 71 l 417 1044 l 371 1044 l 371 140 m 293 1106 l 264 1211 l 214 1211 l 263 1106 l 293 1106 z "},"ú":{"ha":633,"x_min":111,"x_max":417,"o":"m 371 140 q 354 72 371 96 q 289 49 338 49 l 219 49 q 169 72 181 49 q 157 140 157 94 l 157 1044 l 111 1044 l 111 103 q 132 34 111 65 q 194 0 153 3 l 329 0 q 397 37 378 3 q 417 111 417 71 l 417 1044 l 371 1044 l 371 140 m 265 1106 l 314 1211 l 264 1211 l 235 1106 l 265 1106 z "},"û":{"ha":633,"x_min":111,"x_max":417,"o":"m 371 140 q 354 72 371 96 q 289 49 338 49 l 219 49 q 169 72 181 49 q 157 140 157 94 l 157 1044 l 111 1044 l 111 103 q 132 34 111 65 q 194 0 153 3 l 329 0 q 397 37 378 3 q 417 111 417 71 l 417 1044 l 371 1044 l 371 140 m 239 1106 l 267 1165 l 294 1106 l 340 1106 l 292 1211 l 242 1211 l 193 1106 l 239 1106 z "},"ü":{"ha":633,"x_min":111,"x_max":417,"o":"m 157 140 l 157 1044 l 111 1044 l 111 111 q 131 37 111 71 q 199 0 150 3 l 333 0 q 396 34 375 3 q 417 103 417 65 l 417 1044 l 371 1044 l 371 140 q 359 72 371 94 q 308 49 347 49 l 239 49 q 174 72 190 49 q 157 140 157 96 m 175 1106 l 235 1106 l 235 1189 l 175 1189 l 175 1106 m 353 1189 l 293 1189 l 293 1106 l 353 1106 l 353 1189 z "},"ý":{"ha":631,"x_min":111,"x_max":414,"o":"m 239 0 l 288 0 l 288 515 l 315 515 q 348 520 331 515 q 380 535 365 525 q 404 561 394 546 q 414 599 414 576 l 414 1044 l 368 1044 l 368 622 q 315 564 368 564 l 215 564 q 157 626 157 564 l 157 1044 l 111 1044 l 111 603 q 120 563 111 579 q 144 535 129 546 q 176 520 158 525 q 211 515 193 515 l 239 515 l 239 0 m 265 1106 l 314 1211 l 264 1211 l 235 1106 l 265 1106 z "},"þ":{"ha":629,"x_min":111,"x_max":413,"o":"m 111 0 l 111 1044 l 157 1044 l 157 819 l 278 819 q 314 802 292 819 q 358 749 336 785 q 397 660 381 714 q 413 533 413 606 q 400 402 413 458 q 367 310 388 346 q 323 256 347 274 q 276 238 299 238 l 157 238 l 157 0 l 111 0 m 157 286 l 257 286 q 315 310 294 286 q 345 370 335 333 q 360 450 356 407 q 368 531 364 493 q 358 615 365 572 q 338 692 351 657 q 302 749 325 726 q 246 771 279 771 l 157 771 l 157 286 z "},"ÿ":{"ha":631,"x_min":111,"x_max":414,"o":"m 239 0 l 288 0 l 288 515 l 315 515 q 348 520 331 515 q 380 535 365 525 q 404 561 394 546 q 414 599 414 576 l 414 1044 l 368 1044 l 368 622 q 315 564 368 564 l 215 564 q 157 626 157 564 l 157 1044 l 111 1044 l 111 603 q 120 563 111 579 q 144 535 129 546 q 176 520 158 525 q 211 515 193 515 l 239 515 l 239 0 m 175 1106 l 235 1106 l 235 1189 l 175 1189 l 175 1106 m 353 1189 l 293 1189 l 293 1106 l 353 1106 l 353 1189 z "}}}
